SplineFontDB: 3.0
FontName: SkyrimDaedra
FullName: Skyrim Daedra
FamilyName: Skyrim-Daedra
Weight: Medium
Copyright: Created with the help of MyScriptFont.com\nCopyright belongs to the Creator.
Version: 001.000
ItalicAngle: 0
UnderlinePosition: -150
UnderlineWidth: 50
Ascent: 800
Descent: 200
InvalidEm: 0
sfntRevision: 0x00010000
LayerCount: 2
Layer: 0 1 "Back" 1
Layer: 1 1 "Fore" 0
XUID: [1021 334 2127345828 14258640]
StyleMap: 0x0040
FSType: 0
OS2Version: 4
OS2_WeightWidthSlopeOnly: 0
OS2_UseTypoMetrics: 1
CreationTime: 1277802766
ModificationTime: 1559314973
PfmFamily: 17
TTFWeight: 500
TTFWidth: 5
LineGap: 90
VLineGap: 0
Panose: 2 0 6 3 0 0 0 0 0 0
OS2TypoAscent: 800
OS2TypoAOffset: 0
OS2TypoDescent: -200
OS2TypoDOffset: 0
OS2TypoLinegap: 90
OS2WinAscent: 800
OS2WinAOffset: 0
OS2WinDescent: 110
OS2WinDOffset: 0
HheadAscent: 800
HheadAOffset: 0
HheadDescent: -110
HheadDOffset: 0
OS2SubXSize: 650
OS2SubYSize: 700
OS2SubXOff: 0
OS2SubYOff: 140
OS2SupXSize: 650
OS2SupYSize: 700
OS2SupXOff: 0
OS2SupYOff: 480
OS2StrikeYSize: 49
OS2StrikeYPos: 258
OS2CapHeight: 800
OS2XHeight: 561
OS2Vendor: 'PfEd'
OS2CodePages: 00000001.00000000
OS2UnicodeRanges: 80000007.00000002.00000000.00000000
MarkAttachClasses: 1
DEI: 91125
TtTable: prep
PUSHW_1
 511
SCANCTRL
PUSHB_1
 1
SCANTYPE
SVTCA[y-axis]
MPPEM
PUSHB_1
 8
LT
IF
PUSHB_2
 1
 1
INSTCTRL
EIF
PUSHB_2
 70
 6
CALL
IF
POP
PUSHB_1
 16
EIF
MPPEM
PUSHB_1
 20
GT
IF
POP
PUSHB_1
 128
EIF
SCVTCI
PUSHB_1
 6
CALL
NOT
IF
EIF
PUSHB_1
 20
CALL
EndTTInstrs
TtTable: fpgm
PUSHB_1
 0
FDEF
PUSHB_1
 0
SZP0
MPPEM
PUSHB_1
 42
LT
IF
PUSHB_1
 74
SROUND
EIF
PUSHB_1
 0
SWAP
MIAP[rnd]
RTG
PUSHB_1
 6
CALL
IF
RTDG
EIF
MPPEM
PUSHB_1
 42
LT
IF
RDTG
EIF
DUP
MDRP[rp0,rnd,grey]
PUSHB_1
 1
SZP0
MDAP[no-rnd]
RTG
ENDF
PUSHB_1
 1
FDEF
DUP
MDRP[rp0,min,white]
PUSHB_1
 12
CALL
ENDF
PUSHB_1
 2
FDEF
MPPEM
GT
IF
RCVT
SWAP
EIF
POP
ENDF
PUSHB_1
 3
FDEF
ROUND[Black]
RTG
DUP
PUSHB_1
 64
LT
IF
POP
PUSHB_1
 64
EIF
ENDF
PUSHB_1
 4
FDEF
PUSHB_1
 6
CALL
IF
POP
SWAP
POP
ROFF
IF

StartChar: comma
Encoding: 44 44 0
Width: 299
Flags: W
LayerCount: 2
Fore
SplineSet
202 311 m 2,0,1
 241 325 241 325 265 325 c 0,2,3
 282 326 282 326 285.5 323 c 128,-1,4
 289 320 289 320 289 308 c 0,5,6
 289 288 289 288 278 274 c 0,7,8
 261 248 261 248 142 124.5 c 128,-1,9
 23 1 23 1 15 1 c 0,10,11
 10 1 10 1 10 14 c 128,-1,12
 10 27 10 27 17 27 c 0,13,14
 23 27 23 27 34 52 c 0,15,16
 43 75 43 75 58 95 c 0,17,18
 74 119 74 119 117 205 c 2,19,-1
 163 297 l 1,20,-1
 202 311 l 2,0,1
EndSplineSet
EndChar

StartChar: one
Encoding: 49 49 1
Width: 170
Flags: W
LayerCount: 2
Fore
SplineSet
28.125 590 m 0,0,1
 39.125 612 39.125 612 54.125 612 c 0,2,3
 65.125 612 65.125 612 80.625 596.5 c 128,-1,4
 96.125 581 96.125 581 96.125 570 c 0,5,6
 96.125 560 96.125 560 137.125 493 c 2,7,-1
 160.125 455 l 1,8,-1
 147.125 425 l 2,9,10
 131.125 388 131.125 388 93.125 242 c 0,11,12
 64.125 130 64.125 130 64.125 49 c 0,13,14
 64.125 -7 64.125 -7 59.125 -25.5 c 128,-1,15
 54.125 -44 54.125 -44 41.125 -44 c 0,16,17
 23.125 -44 23.125 -44 16.125 -29.5 c 128,-1,18
 9.125 -15 9.125 -15 10.125 20 c 0,19,20
 11.125 49 11.125 49 15.125 315 c 0,21,22
 17.125 476 17.125 476 19.625 526 c 128,-1,23
 22.125 576 22.125 576 28.125 590 c 0,0,1
EndSplineSet
EndChar

StartChar: two
Encoding: 50 50 2
Width: 317
Flags: W
LayerCount: 2
Fore
SplineSet
30 621 m 0,0,1
 46 644 46 644 58.5 635.5 c 128,-1,2
 71 627 71 627 86 584 c 0,3,4
 98 551 98 551 113 521 c 0,5,6
 143 462 143 462 118 375 c 0,7,8
 100 310 100 310 83.5 212.5 c 128,-1,9
 67 115 67 115 67 73 c 0,10,11
 67 32 67 32 57 -7 c 256,12,13
 47 -46 47 -46 51 -78 c 2,14,-1
 55 -109 l 1,15,-1
 10 -109 l 1,16,-1
 20 -72 l 2,17,18
 29 -35 29 -35 26 -8 c 0,19,20
 23 12 23 12 20 311 c 0,21,22
 20 512 20 512 21.5 560.5 c 128,-1,23
 23 609 23 609 30 621 c 0,0,1
202 629 m 0,24,25
 215 639 215 639 222.5 636.5 c 128,-1,26
 230 634 230 634 237 617 c 0,27,28
 248 590 248 590 277 534 c 0,29,30
 307 473 307 473 307 457 c 0,31,32
 307 442 307 442 285 366 c 0,33,34
 256 265 256 265 230 105 c 0,35,36
 223 60 223 60 223 -24 c 2,37,-1
 223 -109 l 1,38,-1
 178 -109 l 1,39,-1
 178 238 l 2,40,41
 178 583 178 583 184 603 c 0,42,43
 191 621 191 621 202 629 c 0,24,25
EndSplineSet
EndChar

StartChar: three
Encoding: 51 51 3
Width: 472
Flags: W
LayerCount: 2
Fore
SplineSet
19 594 m 0,0,1
 28 612 28 612 48 612 c 0,2,3
 63 612 63 612 67.5 606 c 128,-1,4
 72 600 72 600 80 572 c 0,5,6
 91 532 91 532 106 502 c 0,7,8
 138 440 138 440 120 371 c 0,9,10
 107 325 107 325 85 203 c 0,11,12
 72 132 72 132 63 57 c 128,-1,13
 54 -18 54 -18 56 -36 c 0,14,15
 59 -61 59 -61 56 -86 c 0,16,17
 53 -101 53 -101 49 -105 c 128,-1,18
 45 -109 45 -109 33 -109 c 0,19,20
 20 -109 20 -109 17.5 -102.5 c 128,-1,21
 15 -96 15 -96 13 -55 c 0,22,23
 10 18 10 18 10 288 c 0,24,25
 10 463 10 463 11.5 523.5 c 128,-1,26
 13 584 13 584 19 594 c 0,0,1
188 597 m 0,27,28
 198 613 198 613 212 612 c 128,-1,29
 226 611 226 611 230 594 c 0,30,31
 235 573 235 573 261 511 c 0,32,33
 284 455 284 455 286.5 426 c 128,-1,34
 289 397 289 397 274 345 c 0,35,36
 263 306 263 306 249 236.5 c 128,-1,37
 235 167 235 167 230 131 c 0,38,39
 227 101 227 101 223 -4 c 2,40,-1
 219 -109 l 1,41,-1
 161 -109 l 1,42,-1
 165 -53 l 2,43,44
 169 10 169 10 174 294 c 0,45,46
 177 472 177 472 179.5 530 c 128,-1,47
 182 588 182 588 188 597 c 0,27,28
340 575 m 0,48,49
 348 601 348 601 352.5 606.5 c 128,-1,50
 357 612 357 612 372 612 c 0,51,52
 388 612 388 612 393 607 c 128,-1,53
 398 602 398 602 406 578 c 0,54,55
 417 542 417 542 437 505 c 0,56,57
 458 462 458 462 461.5 438 c 128,-1,58
 465 414 465 414 456 375 c 0,59,60
 448 333 448 333 437 312 c 0,61,62
 428 295 428 295 428 273 c 0,63,64
 428 252 428 252 419 216 c 0,65,66
 412 194 412 194 407 164 c 128,-1,67
 402 134 402 134 397 96 c 128,-1,68
 392 58 392 58 389 40 c 0,69,70
 382 -15 382 -15 379 -55 c 2,71,-1
 374 -109 l 1,72,-1
 330 -109 l 1,73,-1
 333 156 l 2,74,75
 334 218 334 218 335 283 c 128,-1,76
 336 348 336 348 336.5 370.5 c 128,-1,77
 337 393 337 393 336.5 422.5 c 128,-1,78
 336 452 336 452 333 486 c 0,79,80
 329 537 329 537 340 575 c 0,48,49
EndSplineSet
EndChar

StartChar: four
Encoding: 52 52 4
Width: 667
Flags: W
LayerCount: 2
Fore
SplineSet
197.799804688 608 m 0,0,1
 211.799804688 624 211.799804688 624 220.299804688 616.5 c 128,-1,2
 228.799804688 609 228.799804688 609 246.799804688 565 c 0,3,4
 263.799804688 522 263.799804688 522 286.799804688 482 c 0,5,6
 322.799804688 423 322.799804688 423 300.799804688 384 c 0,7,8
 279.799804688 343 279.799804688 343 229.799804688 87 c 0,9,10
 223.799804688 49 223.799804688 49 223.799804688 1 c 0,11,12
 223.799804688 -51 223.799804688 -51 216.799804688 -81 c 0,13,14
 210.799804688 -101 210.799804688 -101 206.799804688 -105 c 128,-1,15
 202.799804688 -109 202.799804688 -109 186.799804688 -109 c 2,16,-1
 163.799804688 -109 l 1,17,-1
 168.799804688 -58 l 2,18,19
 172.799804688 1 172.799804688 1 174.799804688 264 c 0,20,21
 177.799804688 554 177.799804688 554 184.799804688 583 c 0,22,23
 187.799804688 598 187.799804688 598 197.799804688 608 c 0,0,1
22.7998046875 597 m 0,24,25
 31.7998046875 612 31.7998046875 612 45.7998046875 612 c 0,26,27
 56.7998046875 612 56.7998046875 612 66.2998046875 596.5 c 128,-1,28
 75.7998046875 581 75.7998046875 581 86.7998046875 544 c 0,29,30
 94.7998046875 520 94.7998046875 520 109.799804688 488 c 0,31,32
 127.799804688 453 127.799804688 453 128.299804688 428 c 128,-1,33
 128.799804688 403 128.799804688 403 113.799804688 341 c 0,34,35
 90.7998046875 248 90.7998046875 248 60.7998046875 37 c 0,36,37
 52.7998046875 -24 52.7998046875 -24 42.2998046875 -66.5 c 128,-1,38
 31.7998046875 -109 31.7998046875 -109 24.7998046875 -109 c 0,39,40
 14.7998046875 -109 14.7998046875 -109 11.7998046875 -25.5 c 128,-1,41
 8.7998046875 58 8.7998046875 58 10.7998046875 290 c 0,42,43
 11.7998046875 474 11.7998046875 474 13.7998046875 531 c 128,-1,44
 15.7998046875 588 15.7998046875 588 22.7998046875 597 c 0,24,25
372.799804688 597 m 0,45,46
 385.799804688 617 385.799804688 617 403.299804688 611.5 c 128,-1,47
 420.799804688 606 420.799804688 606 427.799804688 579 c 0,48,49
 433.799804688 558 433.799804688 558 448.299804688 523 c 128,-1,50
 462.799804688 488 462.799804688 488 470.799804688 475 c 0,51,52
 480.799804688 459 480.799804688 459 479.799804688 416.5 c 128,-1,53
 478.799804688 374 478.799804688 374 468.799804688 354 c 0,54,55
 457.799804688 332 457.799804688 332 457.799804688 312 c 0,56,57
 457.799804688 291 457.799804688 291 447.799804688 255 c 0,58,59
 436.799804688 218 436.799804688 218 431.799804688 173 c 0,60,61
 430.799804688 164 430.799804688 164 418.799804688 79 c 0,62,63
 410.799804688 33 410.799804688 33 411.799804688 8 c 0,64,65
 413.799804688 -20 413.799804688 -20 404.299804688 -64.5 c 128,-1,66
 394.799804688 -109 394.799804688 -109 387.799804688 -109 c 0,67,68
 379.799804688 -109 379.799804688 -109 379.799804688 -84 c 0,69,70
 379.799804688 -58 379.799804688 -58 368.799804688 -1 c 0,71,72
 358.799804688 62 358.799804688 62 360.299804688 321 c 128,-1,73
 361.799804688 580 361.799804688 580 372.799804688 597 c 0,45,46
541.799804688 597 m 0,74,75
 566.799804688 636 566.799804688 636 593.799804688 571 c 0,76,77
 610.799804688 530 610.799804688 530 634.799804688 482 c 0,78,79
 653.799804688 444 653.799804688 444 656.799804688 428.5 c 128,-1,80
 659.799804688 413 659.799804688 413 651.799804688 397 c 0,81,82
 639.799804688 375 639.799804688 375 618.299804688 279.5 c 128,-1,83
 596.799804688 184 596.799804688 184 581.799804688 92 c 0,84,85
 573.799804688 48 573.799804688 48 573.799804688 -31 c 2,86,-1
 573.799804688 -109 l 1,87,-1
 514.799804688 -109 l 1,88,-1
 518.799804688 -58 l 2,89,90
 522.799804688 -6 522.799804688 -6 527.799804688 287 c 0,91,92
 530.799804688 470 530.799804688 470 533.299804688 529 c 128,-1,93
 535.799804688 588 535.799804688 588 541.799804688 597 c 0,74,75
EndSplineSet
EndChar

StartChar: five
Encoding: 53 53 5
Width: 423
Flags: W
LayerCount: 2
Fore
SplineSet
44 699 m 0,0,1
 58 716 58 716 66 716 c 256,2,3
 74 716 74 716 92 662 c 0,4,5
 107 618 107 618 133 564 c 0,6,7
 147 535 147 535 150.5 521.5 c 128,-1,8
 154 508 154 508 152 489 c 0,9,10
 148 456 148 456 146 443 c 2,11,-1
 144 427 l 1,12,-1
 276 423 l 2,13,14
 406 420 406 420 411 416 c 0,15,16
 416 410 416 410 408.5 391 c 128,-1,17
 401 372 401 372 384 353 c 0,18,19
 359 324 359 324 326.5 316 c 128,-1,20
 294 308 294 308 212 312 c 0,21,22
 125 315 125 315 118 306 c 0,23,24
 113 299 113 299 100 233.5 c 128,-1,25
 87 168 87 168 77 94 c 0,26,27
 70 46 70 46 70 -31 c 2,28,-1
 70 -109 l 1,29,-1
 10 -109 l 1,30,-1
 15 -58 l 2,31,32
 19 0 19 0 21 310 c 0,33,34
 23 623 23 623 28 655 c 0,35,36
 31 682 31 682 44 699 c 0,0,1
EndSplineSet
EndChar

StartChar: six
Encoding: 54 54 6
Width: 590
Flags: W
LayerCount: 2
Fore
SplineSet
18 767 m 0,0,1
 23 790 23 790 27 795 c 128,-1,2
 31 800 31 800 46 800 c 0,3,4
 62 800 62 800 67.5 792 c 128,-1,5
 73 784 73 784 89 737 c 0,6,7
 107 679 107 679 124 644 c 0,8,9
 143 605 143 605 147.5 581 c 128,-1,10
 152 557 152 557 142 534 c 0,11,12
 131 504 131 504 140 497 c 0,13,14
 153 488 153 488 260 489 c 0,15,16
 266 489 266 489 274 490 c 2,17,-1
 400 492 l 1,18,-1
 400 464 l 2,19,20
 400 439 400 439 381.5 416 c 128,-1,21
 363 393 363 393 333 381 c 0,22,23
 309 372 309 372 286.5 371.5 c 128,-1,24
 264 371 264 371 185 375 c 2,25,-1
 109 379 l 1,26,-1
 102 351 l 2,27,28
 87 290 87 290 75 199 c 0,29,30
 72 179 72 179 67.5 144 c 128,-1,31
 63 109 63 109 61 92.5 c 128,-1,32
 59 76 59 76 57 44.5 c 128,-1,33
 55 13 55 13 55 -24 c 2,34,-1
 55 -109 l 1,35,-1
 10 -109 l 1,36,-1
 10 312 l 2,37,38
 10 736 10 736 18 767 c 0,0,1
459 763 m 0,39,40
 464 790 464 790 468 795 c 128,-1,41
 472 800 472 800 487 800 c 128,-1,42
 502 800 502 800 506 796 c 128,-1,43
 510 792 510 792 512 773 c 0,44,45
 518 721 518 721 559 632 c 0,46,47
 578 593 578 593 580 575 c 128,-1,48
 582 557 582 557 572 532 c 0,49,50
 561 504 561 504 526 323 c 0,51,52
 513 258 513 258 507.5 208.5 c 128,-1,53
 502 159 502 159 497 63 c 0,54,55
 492 -42 492 -42 487 -81 c 0,56,57
 484 -101 484 -101 480 -105 c 128,-1,58
 476 -109 476 -109 460 -109 c 2,59,-1
 437 -109 l 1,60,-1
 442 -19 l 2,61,62
 446 87 446 87 448 397 c 0,63,64
 451 728 451 728 459 763 c 0,39,40
EndSplineSet
EndChar

StartChar: seven
Encoding: 55 55 7
Width: 739
Flags: W
LayerCount: 2
Fore
SplineSet
15 795 m 0,0,1
 18 800 18 800 41 800 c 0,2,3
 54 800 54 800 58 797 c 128,-1,4
 62 794 62 794 62 785 c 0,5,6
 62 750 62 750 111 647 c 0,7,8
 126 615 126 615 129.5 601 c 128,-1,9
 133 587 133 587 130 570 c 0,10,11
 125 540 125 540 125 524 c 2,12,-1
 124 505 l 1,13,-1
 255 501 l 2,14,15
 385 498 385 498 390 494 c 0,16,17
 395 489 395 489 386.5 462 c 128,-1,18
 378 435 378 435 367 421 c 0,19,20
 353 403 353 403 321 392.5 c 128,-1,21
 289 382 289 382 254 384 c 0,22,23
 101 392 101 392 94 378 c 0,24,25
 81 352 81 352 68.5 269.5 c 128,-1,26
 56 187 56 187 48 82 c 0,27,28
 36 -96 36 -96 31 -105 c 0,29,30
 29 -109 29 -109 22 -109 c 256,31,32
 15 -109 15 -109 13 -78 c 0,33,34
 10 -29 10 -29 10 341 c 0,35,36
 10 792 10 792 15 795 c 0,0,1
439 776 m 0,37,38
 444 792 444 792 448.5 796 c 128,-1,39
 453 800 453 800 468 800 c 256,40,41
 483 800 483 800 487.5 796 c 128,-1,42
 492 792 492 792 497 773 c 0,43,44
 505 742 505 742 524 690 c 0,45,46
 548 621 548 621 551.5 593.5 c 128,-1,47
 555 566 555 566 546 529 c 0,48,49
 540 504 540 504 536 486 c 128,-1,50
 532 468 532 468 530.5 457.5 c 128,-1,51
 529 447 529 447 525 422.5 c 128,-1,52
 521 398 521 398 516 371 c 0,53,54
 509 326 509 326 498.5 245.5 c 128,-1,55
 488 165 488 165 484 140 c 0,56,57
 477 100 477 100 477 17 c 0,58,59
 476 -69 476 -69 472 -86 c 0,60,61
 468 -102 468 -102 456.5 -107 c 128,-1,62
 445 -112 445 -112 438 -101 c 0,63,64
 432 -92 432 -92 432.5 331 c 128,-1,65
 433 754 433 754 439 776 c 0,37,38
610 789 m 0,66,67
 615 800 615 800 637 800 c 0,68,69
 651 800 651 800 655 796.5 c 128,-1,70
 659 793 659 793 661 779 c 0,71,72
 668 735 668 735 709 646 c 0,73,74
 727 606 727 606 729 589 c 128,-1,75
 731 572 731 572 721 538 c 0,76,77
 687 418 687 418 654 184 c 0,78,79
 647 141 647 141 646 32 c 0,80,81
 645 -67 645 -67 640.5 -86.5 c 128,-1,82
 636 -106 636 -106 612 -108 c 2,83,-1
 587 -110 l 1,84,-1
 591 -20 l 2,85,86
 595 77 595 77 600 423 c 0,87,88
 604 778 604 778 610 789 c 0,66,67
EndSplineSet
EndChar

StartChar: eight
Encoding: 56 56 8
Width: 876
Flags: W
LayerCount: 2
Fore
SplineSet
31 763 m 0,0,1
 36 786 36 786 40 793 c 128,-1,2
 44 800 44 800 53 800 c 128,-1,3
 62 800 62 800 67 790.5 c 128,-1,4
 72 781 72 781 81 747 c 0,5,6
 98 687 98 687 120 636 c 0,7,8
 136 595 136 595 139 579 c 128,-1,9
 142 563 142 563 139 527 c 2,10,-1
 134 475 l 1,11,-1
 241 475 l 2,12,13
 327 475 327 475 357.5 472 c 128,-1,14
 388 469 388 469 388 460 c 0,15,16
 388 453 388 453 371 418 c 0,17,18
 353 382 353 382 328.5 368.5 c 128,-1,19
 304 355 304 355 255 356 c 0,20,21
 207 356 207 356 165 361 c 0,22,23
 139 365 139 365 131 363.5 c 128,-1,24
 123 362 123 362 112 352 c 0,25,26
 96 337 96 337 96 317 c 0,27,28
 96 296 96 296 85 245 c 0,29,30
 78 202 78 202 59 -59 c 2,31,-1
 55 -109 l 1,32,-1
 10 -109 l 1,33,-1
 15 -30 l 2,34,35
 19 39 19 39 21 388 c 0,36,37
 24 726 24 726 31 763 c 0,0,1
585 776 m 0,38,39
 603 810 603 810 615 797 c 0,40,41
 627 783 627 783 652 693 c 0,42,43
 656 678 656 678 678 633 c 0,44,45
 712 560 712 560 693 512 c 0,46,47
 685 490 685 490 669.5 416.5 c 128,-1,48
 654 343 654 343 654 326 c 0,49,50
 654 304 654 304 644 264 c 0,51,52
 628 201 628 201 616 34 c 0,53,54
 612 -29 612 -29 603 -69 c 128,-1,55
 594 -109 594 -109 585 -109 c 0,56,57
 575 -109 575 -109 572.5 -14.5 c 128,-1,58
 570 80 570 80 571 375 c 0,59,60
 573 644 573 644 575 701 c 128,-1,61
 577 758 577 758 585 776 c 0,38,39
759 763 m 0,62,63
 764 786 764 786 767.5 793 c 128,-1,64
 771 800 771 800 780 800 c 128,-1,65
 789 800 789 800 794 790.5 c 128,-1,66
 799 781 799 781 808 747 c 0,67,68
 819 700 819 700 846 631 c 0,69,70
 865 582 865 582 866 562 c 128,-1,71
 867 542 867 542 853 479 c 0,72,73
 842 434 842 434 827 336 c 0,74,75
 823 314 823 314 818.5 286 c 128,-1,76
 814 258 814 258 812.5 251.5 c 128,-1,77
 811 245 811 245 808 224.5 c 128,-1,78
 805 204 805 204 805 201 c 128,-1,79
 805 198 805 198 802.5 171.5 c 128,-1,80
 800 145 800 145 799.5 132.5 c 128,-1,81
 799 120 799 120 796 76 c 0,82,83
 791 -36 791 -36 787 -75 c 0,84,85
 784 -101 784 -101 780.5 -105 c 128,-1,86
 777 -109 777 -109 760 -109 c 2,87,-1
 737 -109 l 1,88,-1
 742 -23 l 2,89,90
 746 50 746 50 748 394 c 0,91,92
 751 726 751 726 759 763 c 0,62,63
429 750 m 0,93,94
 432 769 432 769 436 775 c 128,-1,95
 440 781 440 781 449 781 c 0,96,97
 463 781 463 781 470.5 766 c 128,-1,98
 478 751 478 751 491 703 c 0,99,100
 503 657 503 657 518 616 c 0,101,102
 530 586 530 586 529 564 c 128,-1,103
 528 542 528 542 511 440 c 0,104,105
 509 426 509 426 499 361.5 c 128,-1,106
 489 297 489 297 485 268 c 0,107,108
 474 204 474 204 462 -32 c 2,109,-1
 458 -109 l 1,110,-1
 413 -109 l 1,111,-1
 417 -6 l 2,112,113
 422 84 422 84 424 407 c 0,114,115
 425 719 425 719 429 750 c 0,93,94
EndSplineSet
EndChar

StartChar: nine
Encoding: 57 57 9
Width: 768
Flags: W
LayerCount: 2
Fore
SplineSet
35.2724609375 707 m 0,0,1
 52.2724609375 727 52.2724609375 727 63.2724609375 694 c 0,2,3
 66.2724609375 685 66.2724609375 685 69.2724609375 672 c 0,4,5
 81.2724609375 627 81.2724609375 627 97.2724609375 586 c 0,6,7
 107.272460938 560 107.272460938 560 109.772460938 544.5 c 128,-1,8
 112.272460938 529 112.272460938 529 110.272460938 503 c 2,9,-1
 107.272460938 462 l 1,10,-1
 180.272460938 462 l 2,11,12
 243.272460938 462 243.272460938 462 268.772460938 458.5 c 128,-1,13
 294.272460938 455 294.272460938 455 294.272460938 445 c 0,14,15
 294.272460938 428 294.272460938 428 280.272460938 404 c 128,-1,16
 266.272460938 380 266.272460938 380 250.272460938 371 c 0,17,18
 232.272460938 360 232.272460938 360 207.272460938 357.5 c 128,-1,19
 182.272460938 355 182.272460938 355 137.272460938 362 c 0,20,21
 135.272460938 362 135.272460938 362 131.272460938 363 c 0,22,23
 94.2724609375 368 94.2724609375 368 86.7724609375 351.5 c 128,-1,24
 79.2724609375 335 79.2724609375 335 68.2724609375 233 c 0,25,26
 67.2724609375 219 67.2724609375 219 66.2724609375 212 c 0,27,28
 62.2724609375 173 62.2724609375 173 55.2724609375 58 c 0,29,30
 49.2724609375 -38 49.2724609375 -38 45.2724609375 -42 c 0,31,32
 38.2724609375 -49 38.2724609375 -49 27.7724609375 -38.5 c 128,-1,33
 17.2724609375 -28 17.2724609375 -28 13.2724609375 -11 c 0,34,35
 7.2724609375 13 7.2724609375 13 12.2724609375 53 c 0,36,37
 17.2724609375 95 17.2724609375 95 18.2724609375 376 c 0,38,39
 19.2724609375 585 19.2724609375 585 22.2724609375 639.5 c 128,-1,40
 25.2724609375 694 25.2724609375 694 35.2724609375 707 c 0,0,1
320.272460938 688 m 0,41,42
 329.272460938 703 329.272460938 703 343.272460938 703 c 0,43,44
 352.272460938 703 352.272460938 703 356.772460938 693.5 c 128,-1,45
 361.272460938 684 361.272460938 684 368.272460938 651 c 0,46,47
 379.272460938 599 379.272460938 599 393.272460938 569 c 0,48,49
 403.272460938 546 403.272460938 546 403.272460938 528 c 128,-1,50
 403.272460938 510 403.272460938 510 391.272460938 462 c 0,51,52
 371.272460938 371 371.272460938 371 353.272460938 128 c 0,53,54
 347.272460938 43 347.272460938 43 340.272460938 21 c 0,55,56
 333.272460938 -2 333.272460938 -2 333.272460938 -23 c 256,57,58
 333.272460938 -44 333.272460938 -44 324.272460938 -44 c 0,59,60
 305.272460938 -44 305.272460938 -44 308.272460938 394 c 0,61,62
 309.272460938 570 309.272460938 570 311.772460938 624.5 c 128,-1,63
 314.272460938 679 314.272460938 679 320.272460938 688 c 0,41,42
436.272460938 692 m 0,64,65
 453.272460938 712 453.272460938 712 466.272460938 691 c 0,66,67
 477.272460938 672 477.272460938 672 502.272460938 594 c 0,68,69
 517.272460938 545 517.272460938 545 519.272460938 529.5 c 128,-1,70
 521.272460938 514 521.272460938 514 516.272460938 484 c 0,71,72
 509.272460938 450 509.272460938 450 498.772460938 388 c 128,-1,73
 488.272460938 326 488.272460938 326 482.272460938 294 c 0,74,75
 469.272460938 232 469.272460938 232 469.272460938 154 c 0,76,77
 469.272460938 75 469.272460938 75 460.272460938 37 c 0,78,79
 451.272460938 3 451.272460938 3 450.272460938 -29 c 0,80,81
 450.272460938 -57 450.272460938 -57 441.272460938 -57 c 0,82,83
 421.272460938 -57 421.272460938 -57 425.272460938 405 c 0,84,85
 427.272460938 680 427.272460938 680 436.272460938 692 c 0,64,65
566.272460938 692 m 0,86,87
 574.272460938 703 574.272460938 703 582.272460938 703 c 256,88,89
 590.272460938 703 590.272460938 703 615.272460938 621 c 0,90,91
 635.272460938 555 635.272460938 555 636.772460938 522 c 128,-1,92
 638.272460938 489 638.272460938 489 625.272460938 414 c 0,93,94
 609.272460938 325 609.272460938 325 600.272460938 222 c 0,95,96
 594.272460938 153 594.272460938 153 592.272460938 147 c 0,97,98
 591.272460938 140 591.272460938 140 595.272460938 108 c 0,99,100
 600.272460938 74 600.272460938 74 590.272460938 36 c 0,101,102
 580.272460938 -4 580.272460938 -4 580.272460938 -31 c 0,103,104
 580.272460938 -57 580.272460938 -57 571.272460938 -57 c 0,105,106
 552.272460938 -57 552.272460938 -57 555.272460938 401 c 0,107,108
 557.272460938 680 557.272460938 680 566.272460938 692 c 0,86,87
683.272460938 692 m 0,109,110
 699.272460938 711 699.272460938 711 709.272460938 690 c 0,111,112
 714.272460938 679 714.272460938 679 721.272460938 653 c 0,113,114
 738.272460938 591 738.272460938 591 748.272460938 565 c 0,115,116
 757.272460938 541 757.272460938 541 758.272460938 529 c 128,-1,117
 759.272460938 517 759.272460938 517 754.272460938 497 c 0,118,119
 739.272460938 425 739.272460938 425 724.272460938 315 c 128,-1,120
 709.272460938 205 709.272460938 205 706.272460938 112 c 0,121,122
 703.272460938 22 703.272460938 22 699.272460938 -11 c 128,-1,123
 695.272460938 -44 695.272460938 -44 687.272460938 -44 c 0,124,125
 671.272460938 -44 671.272460938 -44 666.272460938 -24 c 128,-1,126
 661.272460938 -4 661.272460938 -4 662.272460938 56 c 0,127,128
 668.272460938 424 668.272460938 424 672.772460938 554 c 128,-1,129
 677.272460938 684 677.272460938 684 683.272460938 692 c 0,109,110
EndSplineSet
EndChar

StartChar: A
Encoding: 65 65 10
Width: 637
Flags: W
LayerCount: 2
Fore
SplineSet
29.2353515625 705 m 0,0,1
 54.2353515625 709 54.2353515625 709 209.235351562 703 c 0,2,3
 211.235351562 702 211.235351562 702 391.235351562 706 c 0,4,5
 569.235351562 709 569.235351562 709 597.235351562 705 c 0,6,7
 617.235351562 703 617.235351562 703 622.735351562 699.5 c 128,-1,8
 628.235351562 696 628.235351562 696 627.235351562 688 c 0,9,10
 627.235351562 679 627.235351562 679 618.735351562 672 c 128,-1,11
 610.235351562 665 610.235351562 665 588.235351562 655 c 0,12,13
 550.235351562 637 550.235351562 637 502.235351562 592 c 0,14,15
 468.235351562 559 468.235351562 559 451.235351562 530 c 128,-1,16
 434.235351562 501 434.235351562 501 423.235351562 455 c 0,17,18
 419.235351562 439 419.235351562 439 411.235351562 437.5 c 128,-1,19
 403.235351562 436 403.235351562 436 389.235351562 449 c 0,20,21
 372.235351562 465 372.235351562 465 375.735351562 490.5 c 128,-1,22
 379.235351562 516 379.235351562 516 404.235351562 568 c 0,23,24
 433.235351562 629 433.235351562 629 433.235351562 640 c 0,25,26
 433.235351562 649 433.235351562 649 423.235351562 656.5 c 128,-1,27
 413.235351562 664 413.235351562 664 385.235351562 673 c 0,28,29
 363.235351562 680 363.235351562 680 352.735351562 680 c 128,-1,30
 342.235351562 680 342.235351562 680 314.235351562 673 c 0,31,32
 275.235351562 662 275.235351562 662 260.235351562 649 c 0,33,34
 249.235351562 640 249.235351562 640 229.735351562 594.5 c 128,-1,35
 210.235351562 549 210.235351562 549 200.235351562 511 c 0,36,37
 193.235351562 485 193.235351562 485 193.235351562 375 c 128,-1,38
 193.235351562 265 193.235351562 265 201.235351562 236 c 0,39,40
 207.235351562 207 207.235351562 207 232.235351562 170 c 0,41,42
 256.235351562 134 256.235351562 134 277.235351562 95 c 0,43,44
 323.235351562 8 323.235351562 8 351.235351562 8 c 0,45,46
 363.235351562 8 363.235351562 8 384.235351562 28 c 128,-1,47
 405.235351562 48 405.235351562 48 410.235351562 65 c 0,48,49
 414.235351562 79 414.235351562 79 430.235351562 79 c 0,50,51
 440.235351562 79 440.235351562 79 443.235351562 75.5 c 128,-1,52
 446.235351562 72 446.235351562 72 446.235351562 60 c 0,53,54
 446.235351562 40 446.235351562 40 430.235351562 10 c 0,55,56
 413.235351562 -24 413.235351562 -24 410.235351562 -53 c 0,57,58
 407.235351562 -75 407.235351562 -75 403.735351562 -79 c 128,-1,59
 400.235351562 -83 400.235351562 -83 383.235351562 -83 c 0,60,61
 368.235351562 -83 368.235351562 -83 355.235351562 -74.5 c 128,-1,62
 342.235351562 -66 342.235351562 -66 308.235351562 -32 c 0,63,64
 239.235351562 34 239.235351562 34 173.235351562 131 c 0,65,66
 157.235351562 155 157.235351562 155 135.235351562 181 c 0,67,68
 112.235351562 207 112.235351562 207 73.2353515625 271 c 0,69,70
 45.2353515625 317 45.2353515625 317 39.7353515625 332.5 c 128,-1,71
 34.2353515625 348 34.2353515625 348 34.2353515625 375 c 0,72,73
 34.2353515625 413 34.2353515625 413 54.2353515625 453 c 0,74,75
 75.2353515625 493 75.2353515625 493 91.2353515625 512 c 0,76,77
 105.235351562 529 105.235351562 529 119.735351562 557 c 128,-1,78
 134.235351562 585 134.235351562 585 134.235351562 595 c 0,79,80
 134.235351562 610 134.235351562 610 122.235351562 628 c 128,-1,81
 110.235351562 646 110.235351562 646 97.2353515625 653 c 0,82,83
 78.2353515625 662 78.2353515625 662 53.2353515625 667 c 0,84,85
 15.2353515625 674 15.2353515625 674 10.2353515625 690 c 0,86,87
 8.2353515625 699 8.2353515625 699 23.2353515625 703 c 0,88,89
 26.2353515625 704 26.2353515625 704 29.2353515625 705 c 0,0,1
EndSplineSet
EndChar

StartChar: B
Encoding: 66 66 11
Width: 596
Flags: W
LayerCount: 2
Fore
SplineSet
44.4541015625 756 m 0,0,1
 62.4541015625 759 62.4541015625 759 311.454101562 759 c 0,2,3
 479.454101562 758 479.454101562 758 521.454101562 756 c 128,-1,4
 563.454101562 754 563.454101562 754 570.454101562 747 c 0,5,6
 580.454101562 737 580.454101562 737 584.954101562 685.5 c 128,-1,7
 589.454101562 634 589.454101562 634 583.454101562 596 c 0,8,9
 578.454101562 562 578.454101562 562 552.454101562 532 c 128,-1,10
 526.454101562 502 526.454101562 502 490.454101562 489 c 0,11,12
 449.454101562 475 449.454101562 475 447.454101562 475 c 0,13,14
 434.454101562 475 434.454101562 475 455.454101562 506 c 0,15,16
 459.454101562 512 459.454101562 512 465.454101562 518 c 0,17,18
 478.454101562 533 478.454101562 533 485.954101562 544.5 c 128,-1,19
 493.454101562 556 493.454101562 556 498.954101562 572 c 128,-1,20
 504.454101562 588 504.454101562 588 501.454101562 606 c 128,-1,21
 498.454101562 624 498.454101562 624 488.454101562 646 c 0,22,23
 479.454101562 664 479.454101562 664 469.454101562 673 c 128,-1,24
 459.454101562 682 459.454101562 682 433.454101562 695 c 0,25,26
 403.454101562 709 403.454101562 709 386.454101562 712.5 c 128,-1,27
 369.454101562 716 369.454101562 716 316.454101562 716 c 0,28,29
 257.454101562 716 257.454101562 716 234.954101562 710 c 128,-1,30
 212.454101562 704 212.454101562 704 194.454101562 684 c 0,31,32
 185.454101562 674 185.454101562 674 184.954101562 668.5 c 128,-1,33
 184.454101562 663 184.454101562 663 191.454101562 649 c 0,34,35
 200.454101562 630 200.454101562 630 224.454101562 599 c 0,36,37
 258.454101562 554 258.454101562 554 295.454101562 496 c 128,-1,38
 332.454101562 438 332.454101562 438 350.454101562 400 c 0,39,40
 368.454101562 364 368.454101562 364 371.954101562 347.5 c 128,-1,41
 375.454101562 331 375.454101562 331 375.454101562 290 c 2,42,-1
 375.454101562 231 l 1,43,-1
 344.454101562 186 l 2,44,45
 299.454101562 118 299.454101562 118 268.954101562 87 c 128,-1,46
 238.454101562 56 238.454101562 56 163.454101562 -1 c 0,47,48
 49.4541015625 -86 49.4541015625 -86 26.4541015625 -83 c 0,49,50
 16.4541015625 -82 16.4541015625 -82 13.4541015625 -67 c 0,51,52
 10.4541015625 -47 10.4541015625 -47 15.4541015625 -29 c 0,53,54
 22.4541015625 -8 22.4541015625 -8 21.4541015625 155.5 c 128,-1,55
 20.4541015625 319 20.4541015625 319 14.4541015625 345 c 0,56,57
 7.4541015625 375 7.4541015625 375 11.4541015625 403 c 0,58,59
 16.4541015625 437 16.4541015625 437 32.4541015625 436 c 0,60,61
 51.4541015625 434 51.4541015625 434 60.4541015625 391 c 0,62,63
 62.4541015625 383 62.4541015625 383 63.4541015625 373 c 0,64,65
 85.4541015625 163 85.4541015625 163 126.454101562 119 c 0,66,67
 144.454101562 101 144.454101562 101 158.954101562 99.5 c 128,-1,68
 173.454101562 98 173.454101562 98 195.454101562 112 c 0,69,70
 222.454101562 128 222.454101562 128 232.454101562 151.5 c 128,-1,71
 242.454101562 175 242.454101562 175 242.454101562 224 c 0,72,73
 242.454101562 274 242.454101562 274 232.454101562 293.5 c 128,-1,74
 222.454101562 313 222.454101562 313 170.454101562 369 c 0,75,76
 126.454101562 415 126.454101562 415 119.454101562 441 c 0,77,78
 112.454101562 466 112.454101562 466 112.454101562 555 c 0,79,80
 112.454101562 637 112.454101562 637 101.954101562 666.5 c 128,-1,81
 91.4541015625 696 91.4541015625 696 53.4541015625 718 c 0,82,83
 2.4541015625 746 2.4541015625 746 44.4541015625 756 c 0,0,1
EndSplineSet
EndChar

StartChar: C
Encoding: 67 67 12
Width: 612
Flags: W
LayerCount: 2
Fore
SplineSet
58 754 m 0,0,1
 79 760 79 760 306.5 760.5 c 128,-1,2
 534 761 534 761 559 755 c 256,3,4
 584 749 584 749 591 742 c 0,5,6
 598 736 598 736 600 477 c 0,7,8
 601 213 601 213 602 203 c 0,9,10
 603 189 603 189 598 68 c 0,11,12
 596 22 596 22 594 -3.5 c 128,-1,13
 592 -29 592 -29 588.5 -44 c 128,-1,14
 585 -59 585 -59 580.5 -62 c 128,-1,15
 576 -65 576 -65 568 -62 c 0,16,17
 557 -58 557 -58 553.5 -23.5 c 128,-1,18
 550 11 550 11 550 120 c 0,19,20
 550 260 550 260 544 293 c 0,21,22
 538 329 538 329 531 378 c 0,23,24
 518 468 518 468 505 510 c 128,-1,25
 492 552 492 552 473 562 c 0,26,27
 466 566 466 566 444 588 c 0,28,29
 429 605 429 605 433 614.5 c 128,-1,30
 437 624 437 624 463 629 c 0,31,32
 479 631 479 631 503.5 653 c 128,-1,33
 528 675 528 675 520 688 c 0,34,35
 516 696 516 696 482.5 698 c 128,-1,36
 449 700 449 700 315 701 c 0,37,38
 185 702 185 702 149.5 700.5 c 128,-1,39
 114 699 114 699 108 692 c 0,40,41
 99 681 99 681 108.5 670 c 128,-1,42
 118 659 118 659 157 639 c 0,43,44
 202 614 202 614 204 608 c 256,45,46
 206 602 206 602 172 562 c 0,47,48
 113 494 113 494 102 410 c 0,49,50
 97 370 97 370 86 319 c 0,51,52
 76 268 76 268 76 193 c 0,53,54
 76 138 76 138 68.5 78 c 128,-1,55
 61 18 61 18 50 -16 c 256,56,57
 39 -50 39 -50 28 -31 c 0,58,59
 23 -24 23 -24 16.5 57 c 128,-1,60
 10 138 10 138 10 177 c 0,61,62
 12 237 12 237 11 349 c 0,63,64
 10 537 10 537 14 623 c 0,65,66
 17 695 17 695 26 721 c 128,-1,67
 35 747 35 747 58 754 c 0,0,1
EndSplineSet
EndChar

StartChar: D
Encoding: 68 68 13
Width: 580
Flags: W
LayerCount: 2
Fore
SplineSet
218.599609375 756 m 2,0,1
 296.599609375 758 296.599609375 758 424.599609375 758 c 0,2,3
 498.599609375 758 498.599609375 758 519.099609375 756 c 128,-1,4
 539.599609375 754 539.599609375 754 547.599609375 746 c 256,5,6
 555.599609375 738 555.599609375 738 558.599609375 690 c 128,-1,7
 561.599609375 642 561.599609375 642 564.599609375 434 c 0,8,9
 565.599609375 361 565.599609375 361 567.099609375 279.5 c 128,-1,10
 568.599609375 198 568.599609375 198 569.599609375 135.5 c 128,-1,11
 570.599609375 73 570.599609375 73 570.599609375 66 c 0,12,13
 572.599609375 -32 572.599609375 -32 552.599609375 -43 c 0,14,15
 542.599609375 -48 542.599609375 -48 532.599609375 -24 c 0,16,17
 530.599609375 -18 530.599609375 -18 528.599609375 -11 c 0,18,19
 517.599609375 21 517.599609375 21 517.599609375 92 c 256,20,21
 517.599609375 163 517.599609375 163 510.599609375 183 c 0,22,23
 503.599609375 209 503.599609375 209 501.599609375 342 c 0,24,25
 497.599609375 481 497.599609375 481 492.599609375 521 c 0,26,27
 487.599609375 560 487.599609375 560 469.099609375 597.5 c 128,-1,28
 450.599609375 635 450.599609375 635 426.599609375 652 c 0,29,30
 420.599609375 656 420.599609375 656 413.099609375 662 c 128,-1,31
 405.599609375 668 405.599609375 668 397.599609375 674.5 c 128,-1,32
 389.599609375 681 389.599609375 681 387.599609375 683 c 0,33,34
 367.599609375 699 367.599609375 699 309.599609375 717 c 128,-1,35
 251.599609375 735 251.599609375 735 221.599609375 735 c 0,36,37
 190.599609375 735 190.599609375 735 165.599609375 726 c 128,-1,38
 140.599609375 717 140.599609375 717 140.599609375 706 c 256,39,40
 140.599609375 695 140.599609375 695 168.599609375 665.5 c 128,-1,41
 196.599609375 636 196.599609375 636 218.599609375 623 c 0,42,43
 242.599609375 610 242.599609375 610 243.599609375 596 c 128,-1,44
 244.599609375 582 244.599609375 582 222.599609375 550 c 0,45,46
 201.599609375 518 201.599609375 518 196.599609375 480 c 0,47,48
 191.599609375 423 191.599609375 423 171.599609375 423 c 0,49,50
 162.599609375 424 162.599609375 424 153.599609375 438 c 0,51,52
 144.599609375 453 144.599609375 453 141.599609375 520 c 0,53,54
 138.599609375 561 138.599609375 561 135.599609375 575.5 c 128,-1,55
 132.599609375 590 132.599609375 590 126.599609375 595 c 0,56,57
 114.599609375 602 114.599609375 602 98.599609375 586 c 0,58,59
 86.599609375 575 86.599609375 575 84.099609375 563.5 c 128,-1,60
 81.599609375 552 81.599609375 552 81.599609375 512 c 0,61,62
 81.599609375 438 81.599609375 438 95.599609375 390.5 c 128,-1,63
 109.599609375 343 109.599609375 343 143.599609375 296 c 0,64,65
 157.599609375 277 157.599609375 277 172.099609375 264.5 c 128,-1,66
 186.599609375 252 186.599609375 252 237.599609375 213 c 0,67,68
 267.599609375 191 267.599609375 191 278.599609375 169 c 128,-1,69
 289.599609375 147 289.599609375 147 289.599609375 112 c 0,70,71
 289.599609375 83 289.599609375 83 298.099609375 63.5 c 128,-1,72
 306.599609375 44 306.599609375 44 328.599609375 24 c 0,73,74
 344.599609375 10 344.599609375 10 356.099609375 -9 c 128,-1,75
 367.599609375 -28 367.599609375 -28 367.599609375 -38 c 0,76,77
 367.599609375 -56 367.599609375 -56 321.599609375 -34 c 0,78,79
 304.599609375 -26 304.599609375 -26 286.599609375 -14 c 0,80,81
 206.599609375 38 206.599609375 38 141.099609375 117 c 128,-1,82
 75.599609375 196 75.599609375 196 43.599609375 277 c 0,83,84
 19.599609375 337 19.599609375 337 13.599609375 380.5 c 128,-1,85
 7.599609375 424 7.599609375 424 11.599609375 498 c 0,86,87
 13.599609375 549 13.599609375 549 18.599609375 567.5 c 128,-1,88
 23.599609375 586 23.599609375 586 44.599609375 631 c 0,89,90
 74.599609375 692 74.599609375 692 99.599609375 723 c 2,91,-1
 124.599609375 754 l 1,92,-1
 218.599609375 756 l 2,0,1
EndSplineSet
EndChar

StartChar: E
Encoding: 69 69 14
Width: 581
Flags: W
LayerCount: 2
Fore
SplineSet
220.571289062 768 m 0,0,1
 255.571289062 776 255.571289062 776 299.571289062 768 c 0,2,3
 325.571289062 762 325.571289062 762 439.571289062 759 c 0,4,5
 510.571289062 758 510.571289062 758 531.571289062 756 c 128,-1,6
 552.571289062 754 552.571289062 754 559.571289062 746 c 0,7,8
 567.571289062 738 567.571289062 738 569.571289062 699.5 c 128,-1,9
 571.571289062 661 571.571289062 661 571.571289062 492 c 0,10,11
 571.571289062 333 571.571289062 333 569.571289062 289 c 128,-1,12
 567.571289062 245 567.571289062 245 561.571289062 238 c 0,13,14
 554.571289062 231 554.571289062 231 547.571289062 235.5 c 128,-1,15
 540.571289062 240 540.571289062 240 520.571289062 264 c 0,16,17
 485.571289062 305 485.571289062 305 448.571289062 315.5 c 128,-1,18
 411.571289062 326 411.571289062 326 304.571289062 326 c 0,19,20
 232.571289062 326 232.571289062 326 206.071289062 323.5 c 128,-1,21
 179.571289062 321 179.571289062 321 156.571289062 313 c 0,22,23
 121.571289062 300 121.571289062 300 108.571289062 285 c 0,24,25
 71.5712890625 244 71.5712890625 244 83.5712890625 151 c 128,-1,26
 95.5712890625 58 95.5712890625 58 143.571289062 14 c 0,27,28
 166.571289062 -8 166.571289062 -8 184.571289062 -15.5 c 128,-1,29
 202.571289062 -23 202.571289062 -23 235.071289062 -26 c 128,-1,30
 267.571289062 -29 267.571289062 -29 350.571289062 -31 c 0,31,32
 495.571289062 -35 495.571289062 -35 504.571289062 -44 c 0,33,34
 532.571289062 -66 532.571289062 -66 488.571289062 -72 c 0,35,36
 446.571289062 -78 446.571289062 -78 313.571289062 -74 c 0,37,38
 204.571289062 -70 204.571289062 -70 151.571289062 -70 c 0,39,40
 124.571289062 -70 124.571289062 -70 79.5712890625 -64 c 128,-1,41
 34.5712890625 -58 34.5712890625 -58 30.5712890625 -54 c 0,42,43
 22.5712890625 -47 22.5712890625 -47 14.5712890625 185 c 128,-1,44
 6.5712890625 417 6.5712890625 417 12.5712890625 455 c 0,45,46
 15.5712890625 476 15.5712890625 476 21.5712890625 482 c 128,-1,47
 27.5712890625 488 27.5712890625 488 39.0712890625 481 c 128,-1,48
 50.5712890625 474 50.5712890625 474 71.5712890625 451 c 0,49,50
 105.571289062 413 105.571289062 413 131.571289062 405 c 0,51,52
 158.571289062 397 158.571289062 397 280.571289062 397 c 0,53,54
 361.571289062 397 361.571289062 397 389.071289062 399.5 c 128,-1,55
 416.571289062 402 416.571289062 402 439.571289062 410 c 0,56,57
 473.571289062 423 473.571289062 423 487.571289062 439 c 128,-1,58
 501.571289062 455 501.571289062 455 509.571289062 488 c 0,59,60
 520.571289062 533 520.571289062 533 510.571289062 583 c 128,-1,61
 500.571289062 633 500.571289062 633 474.571289062 662 c 0,62,63
 453.571289062 687 453.571289062 687 431.571289062 696.5 c 128,-1,64
 409.571289062 706 409.571289062 706 369.071289062 709.5 c 128,-1,65
 328.571289062 713 328.571289062 713 223.571289062 716 c 0,66,67
 51.5712890625 719 51.5712890625 719 34.5712890625 728 c 0,68,69
 -12.4287109375 751 -12.4287109375 751 64.5712890625 759 c 0,70,71
 92.5712890625 761 92.5712890625 761 138.571289062 762 c 0,72,73
 201.571289062 763 201.571289062 763 220.571289062 768 c 0,0,1
EndSplineSet
EndChar

StartChar: F
Encoding: 70 70 15
Width: 605
Flags: W
LayerCount: 2
Fore
SplineSet
533 794 m 0,0,1
 533 799 533 799 540 800 c 128,-1,2
 547 801 547 801 556 798 c 128,-1,3
 565 795 565 795 572 789 c 0,4,5
 587 776 587 776 584 768.5 c 128,-1,6
 581 761 581 761 558 751 c 0,7,8
 525 737 525 737 473 690 c 0,9,10
 459 677 459 677 414 626.5 c 128,-1,11
 369 576 369 576 353 555 c 0,12,13
 332 527 332 527 332 515 c 0,14,15
 332 505 332 505 347.5 503 c 128,-1,16
 363 501 363 501 445 501 c 0,17,18
 555 501 555 501 576 497 c 2,19,-1
 595 494 l 1,20,-1
 595 347 l 2,21,22
 595 253 595 253 593 226 c 128,-1,23
 591 199 591 199 585 199 c 0,24,25
 575 199 575 199 555 259 c 0,26,27
 541 304 541 304 529 324 c 128,-1,28
 517 344 517 344 498 354 c 0,29,30
 470 369 470 369 330 375 c 0,31,32
 265 379 265 379 241 373 c 128,-1,33
 217 367 217 367 212 347 c 0,34,35
 209 334 209 334 192.5 305.5 c 128,-1,36
 176 277 176 277 173 268 c 0,37,38
 169 253 169 253 147 206 c 0,39,40
 97 97 97 97 65 -68 c 0,41,42
 61 -92 61 -92 57 -100.5 c 128,-1,43
 53 -109 53 -109 46 -109 c 0,44,45
 35 -109 35 -109 31 -89 c 0,46,47
 13 4 13 4 83 216 c 0,48,49
 117 321 117 321 120 334 c 0,50,51
 137 391 137 391 192.5 488 c 128,-1,52
 248 585 248 585 306 660 c 0,53,54
 339 701 339 701 339 716 c 0,55,56
 339 724 339 724 331 726 c 128,-1,57
 323 728 323 728 289 728 c 0,58,59
 209 728 209 728 134 699 c 0,60,61
 76 678 76 678 50 599 c 0,62,63
 41 574 41 574 31.5 564.5 c 128,-1,64
 22 555 22 555 13 564 c 0,65,66
 7 571 7 571 13 667 c 0,67,68
 17 734 17 734 20 750 c 128,-1,69
 23 766 23 766 33 775 c 0,70,71
 43 783 43 783 81.5 785 c 128,-1,72
 120 787 120 787 291 787 c 0,73,74
 533 787 533 787 533 794 c 0,0,1
EndSplineSet
EndChar

StartChar: G
Encoding: 71 71 16
Width: 551
Flags: W
LayerCount: 2
Fore
SplineSet
41.1337890625 768 m 0,0,1
 57.1337890625 773 57.1337890625 773 265.133789062 773 c 128,-1,2
 473.133789062 773 473.133789062 773 488.133789062 768 c 0,3,4
 511.133789062 762 511.133789062 762 512.133789062 750.5 c 128,-1,5
 513.133789062 739 513.133789062 739 492.133789062 721 c 0,6,7
 471.133789062 702 471.133789062 702 471.633789062 689 c 128,-1,8
 472.133789062 676 472.133789062 676 495.133789062 648 c 0,9,10
 509.133789062 631 509.133789062 631 525.133789062 578 c 128,-1,11
 541.133789062 525 541.133789062 525 541.133789062 497 c 0,12,13
 541.133789062 437 541.133789062 437 488.633789062 318.5 c 128,-1,14
 436.133789062 200 436.133789062 200 372.133789062 114 c 0,15,16
 299.133789062 16 299.133789062 16 226.633789062 -48 c 128,-1,17
 154.133789062 -112 154.133789062 -112 120.133789062 -108 c 0,18,19
 119.133789062 -108 119.133789062 -108 116.133789062 -107 c 0,20,21
 108.133789062 -107 108.133789062 -107 108.133789062 -105 c 0,22,23
 108.133789062 -100 108.133789062 -100 180.133789062 -31 c 0,24,25
 193.133789062 -18 193.133789062 -18 201.133789062 -10 c 0,26,27
 319.133789062 104 319.133789062 104 373.633789062 244.5 c 128,-1,28
 428.133789062 385 428.133789062 385 402.133789062 509 c 0,29,30
 389.133789062 571 389.133789062 571 376.633789062 600 c 128,-1,31
 364.133789062 629 364.133789062 629 338.133789062 656 c 2,32,-1
 305.133789062 690 l 1,33,-1
 229.133789062 690 l 2,34,35
 152.133789062 690 152.133789062 690 131.133789062 682 c 0,36,37
 112.133789062 676 112.133789062 676 71.1337890625 640 c 0,38,39
 45.1337890625 616 45.1337890625 616 37.6337890625 612 c 128,-1,40
 30.1337890625 608 30.1337890625 608 23.1337890625 614 c 0,41,42
 12.1337890625 625 12.1337890625 625 10.1337890625 678 c 0,43,44
 9.1337890625 724 9.1337890625 724 15.6337890625 743.5 c 128,-1,45
 22.1337890625 763 22.1337890625 763 41.1337890625 768 c 0,0,1
EndSplineSet
EndChar

StartChar: H
Encoding: 72 72 17
Width: 483
Flags: W
LayerCount: 2
Fore
SplineSet
21 787 m 0,0,1
 23 796 23 796 55 798 c 128,-1,2
 87 800 87 800 249 800 c 2,3,-1
 473 800 l 1,4,-1
 469 762 l 2,5,6
 466 735 466 735 449 691.5 c 128,-1,7
 432 648 432 648 416 628 c 0,8,9
 406 615 406 615 395 622 c 0,10,11
 389 626 389 626 387 637 c 128,-1,12
 385 648 385 648 386 677 c 0,13,14
 387 724 387 724 377 733 c 128,-1,15
 367 742 367 742 314 740 c 2,16,-1
 260 738 l 1,17,-1
 244 707 l 2,18,19
 230 678 230 678 230 660.5 c 128,-1,20
 230 643 230 643 246 607 c 0,21,22
 260 576 260 576 299.5 534 c 128,-1,23
 339 492 339 492 358 486 c 0,24,25
 372 481 372 481 380 463 c 0,26,27
 385 451 385 451 382.5 442 c 128,-1,28
 380 433 380 433 366 410 c 0,29,30
 338 364 338 364 302 272 c 0,31,32
 285 230 285 230 250 163.5 c 128,-1,33
 215 97 215 97 190 60 c 0,34,35
 128 -33 128 -33 87 -44 c 0,36,37
 68 -49 68 -49 39 -46.5 c 128,-1,38
 10 -44 10 -44 10 -38 c 0,39,40
 10 -33 10 -33 29.5 -16 c 128,-1,41
 49 1 49 1 67 11 c 0,42,43
 93 27 93 27 138 106.5 c 128,-1,44
 183 186 183 186 202 251 c 0,45,46
 220 310 220 310 226.5 394 c 128,-1,47
 233 478 233 478 224 523 c 0,48,49
 215 566 215 566 196 605 c 0,50,51
 177 645 177 645 134.5 691 c 128,-1,52
 92 737 92 737 62 750 c 0,53,54
 33 763 33 763 25.5 769.5 c 128,-1,55
 18 776 18 776 21 787 c 0,0,1
EndSplineSet
EndChar

StartChar: I
Encoding: 73 73 18
Width: 538
Flags: W
LayerCount: 2
Fore
SplineSet
28.26171875 774.5 m 128,-1,1
 38.76171875 783 38.76171875 783 74.26171875 785 c 128,-1,2
 109.76171875 787 109.76171875 787 271.76171875 787 c 0,3,4
 419.76171875 787 419.76171875 787 462.26171875 785 c 128,-1,5
 504.76171875 783 504.76171875 783 514.76171875 777 c 0,6,7
 528.76171875 767 528.76171875 767 528.76171875 760 c 256,8,9
 528.76171875 753 528.76171875 753 491.76171875 716 c 0,10,11
 453.76171875 679 453.76171875 679 435.76171875 658 c 0,12,13
 417.76171875 638 417.76171875 638 390.76171875 630 c 0,14,15
 364.76171875 623 364.76171875 623 361.76171875 620.5 c 128,-1,16
 358.76171875 618 358.76171875 618 366.76171875 608 c 0,17,18
 375.76171875 597 375.76171875 597 374.26171875 561.5 c 128,-1,19
 372.76171875 526 372.76171875 526 360.76171875 501 c 0,20,21
 349.76171875 477 349.76171875 477 334.26171875 411 c 128,-1,22
 318.76171875 345 318.76171875 345 313.76171875 330 c 0,23,24
 301.76171875 289 301.76171875 289 301.76171875 251 c 0,25,26
 301.76171875 220 301.76171875 220 293.76171875 184.5 c 128,-1,27
 285.76171875 149 285.76171875 149 274.26171875 126.5 c 128,-1,28
 262.76171875 104 262.76171875 104 253.76171875 107 c 0,29,30
 238.76171875 112 238.76171875 112 234.26171875 157.5 c 128,-1,31
 229.76171875 203 229.76171875 203 231.76171875 332 c 0,32,33
 235.76171875 529 235.76171875 529 238.76171875 577 c 0,34,35
 242.76171875 640 242.76171875 640 236.26171875 653 c 128,-1,36
 229.76171875 666 229.76171875 666 196.76171875 662 c 0,37,38
 137.76171875 654 137.76171875 654 67.76171875 595 c 0,39,40
 32.76171875 566 32.76171875 566 23.76171875 566 c 0,41,42
 6.76171875 566 6.76171875 566 10.76171875 693 c 0,43,44
 11.76171875 741 11.76171875 741 14.76171875 753.5 c 128,-1,0
 17.76171875 766 17.76171875 766 28.26171875 774.5 c 128,-1,1
EndSplineSet
EndChar

StartChar: J
Encoding: 74 74 19
Width: 532
Flags: W
LayerCount: 2
Fore
SplineSet
116 755 m 0,0,1
 134 759 134 759 287 759.5 c 128,-1,2
 440 760 440 760 460 755 c 0,3,4
 504 746 504 746 475 707 c 0,5,6
 457 684 457 684 457 671 c 0,7,8
 457 659 457 659 473 603 c 128,-1,9
 489 547 489 547 496 534 c 0,10,11
 504 519 504 519 510 470 c 0,12,13
 517 422 517 422 521 177.5 c 128,-1,14
 525 -67 525 -67 520 -81 c 0,15,16
 514 -96 514 -96 499.5 -99.5 c 128,-1,17
 485 -103 485 -103 457 -95 c 0,18,19
 426 -87 426 -87 399 -95 c 0,20,21
 381 -101 381 -101 373.5 -100.5 c 128,-1,22
 366 -100 366 -100 355 -92 c 2,23,-1
 338 -81 l 1,24,-1
 361 -61 l 2,25,26
 392 -33 392 -33 409.5 3.5 c 128,-1,27
 427 40 427 40 442 110 c 0,28,29
 451 155 451 155 451 277.5 c 128,-1,30
 451 400 451 400 442 443 c 0,31,32
 413 571 413 571 336 627 c 0,33,34
 313 644 313 644 300.5 647.5 c 128,-1,35
 288 651 288 651 240 651 c 2,36,-1
 174 651 l 1,37,-1
 135 610 l 2,38,39
 102 576 102 576 86 542 c 128,-1,40
 70 508 70 508 61 453 c 0,41,42
 40 331 40 331 24 341 c 0,43,44
 19 345 19 345 15 362 c 0,45,46
 10 387 10 387 10 520.5 c 128,-1,47
 10 654 10 654 16 668 c 0,48,49
 26 694 26 694 57.5 721 c 128,-1,50
 89 748 89 748 116 755 c 0,0,1
EndSplineSet
EndChar

StartChar: K
Encoding: 75 75 20
Width: 566
Flags: W
LayerCount: 2
Fore
SplineSet
319.799804688 761 m 0,0,1
 340.799804688 761 340.799804688 761 375.799804688 762 c 0,2,3
 501.799804688 764 501.799804688 764 523.299804688 763.5 c 128,-1,4
 544.799804688 763 544.799804688 763 547.799804688 757 c 0,5,6
 548.799804688 755 548.799804688 755 549.799804688 754 c 0,7,8
 555.799804688 744 555.799804688 744 535.799804688 724 c 0,9,10
 516.799804688 705 516.799804688 705 511.799804688 685.5 c 128,-1,11
 506.799804688 666 506.799804688 666 514.799804688 638 c 0,12,13
 517.799804688 628 517.799804688 628 524.299804688 601 c 128,-1,14
 530.799804688 574 530.799804688 574 536.299804688 553 c 128,-1,15
 541.799804688 532 541.799804688 532 547.799804688 520 c 0,16,17
 556.799804688 505 556.799804688 505 556.799804688 388 c 0,18,19
 556.799804688 300 556.799804688 300 554.299804688 280 c 128,-1,20
 551.799804688 260 551.799804688 260 536.799804688 229 c 0,21,22
 518.799804688 189 518.799804688 189 502.299804688 163.5 c 128,-1,23
 485.799804688 138 485.799804688 138 477.799804688 138 c 128,-1,24
 469.799804688 138 469.799804688 138 469.799804688 150.5 c 128,-1,25
 469.799804688 163 469.799804688 163 476.799804688 181 c 0,26,27
 501.799804688 244 501.799804688 244 501.799804688 360 c 0,28,29
 501.799804688 414 501.799804688 414 498.799804688 434 c 128,-1,30
 495.799804688 454 495.799804688 454 480.799804688 490 c 0,31,32
 442.799804688 587 442.799804688 587 402.799804688 631 c 0,33,34
 387.799804688 647 387.799804688 647 373.799804688 668 c 0,35,36
 364.799804688 680 364.799804688 680 352.299804688 686.5 c 128,-1,37
 339.799804688 693 339.799804688 693 308.799804688 702 c 0,38,39
 254.799804688 716 254.799804688 716 214.799804688 716 c 0,40,41
 184.799804688 716 184.799804688 716 177.799804688 713.5 c 128,-1,42
 170.799804688 711 170.799804688 711 170.799804688 702 c 0,43,44
 170.799804688 689 170.799804688 689 190.799804688 672 c 0,45,46
 209.799804688 657 209.799804688 657 209.799804688 650 c 256,47,48
 209.799804688 643 209.799804688 643 180.799804688 631 c 0,49,50
 154.799804688 619 154.799804688 619 140.799804688 595.5 c 128,-1,51
 126.799804688 572 126.799804688 572 108.799804688 510 c 0,52,53
 92.7998046875 456 92.7998046875 456 92.2998046875 390 c 128,-1,54
 91.7998046875 324 91.7998046875 324 106.799804688 269 c 0,55,56
 134.799804688 166 134.799804688 166 150.299804688 124.5 c 128,-1,57
 165.799804688 83 165.799804688 83 185.799804688 61 c 0,58,59
 206.799804688 38 206.799804688 38 229.299804688 52 c 128,-1,60
 251.799804688 66 251.799804688 66 262.799804688 108 c 0,61,62
 279.799804688 184 279.799804688 184 292.799804688 188 c 0,63,64
 299.799804688 190 299.799804688 190 306.299804688 176 c 128,-1,65
 312.799804688 162 312.799804688 162 317.799804688 136 c 128,-1,66
 322.799804688 110 322.799804688 110 324.799804688 79 c 0,67,68
 326.799804688 28 326.799804688 28 317.299804688 -21 c 128,-1,69
 307.799804688 -70 307.799804688 -70 293.799804688 -79 c 0,70,71
 264.799804688 -97 264.799804688 -97 200.299804688 -35 c 128,-1,72
 135.799804688 27 135.799804688 27 89.7998046875 118 c 0,73,74
 38.7998046875 218 38.7998046875 218 22.7998046875 285 c 128,-1,75
 6.7998046875 352 6.7998046875 352 10.7998046875 446 c 0,76,77
 13.7998046875 529 13.7998046875 529 19.7998046875 568 c 0,78,79
 28.7998046875 618 28.7998046875 618 57.2998046875 681 c 128,-1,80
 85.7998046875 744 85.7998046875 744 103.799804688 752 c 0,81,82
 114.799804688 757 114.799804688 757 319.799804688 761 c 0,0,1
EndSplineSet
EndChar

StartChar: L
Encoding: 76 76 21
Width: 579
Flags: W
LayerCount: 2
Fore
SplineSet
32.3291015625 769 m 0,0,1
 49.3291015625 773 49.3291015625 773 290.829101562 773.5 c 128,-1,2
 532.329101562 774 532.329101562 774 549.329101562 770 c 0,3,4
 563.329101562 767 563.329101562 767 566.329101562 762.5 c 128,-1,5
 569.329101562 758 569.329101562 758 569.329101562 738 c 0,6,7
 569.329101562 714 569.329101562 714 549.329101562 670 c 128,-1,8
 529.329101562 626 529.329101562 626 496.329101562 578 c 0,9,10
 477.329101562 549 477.329101562 549 463.829101562 538 c 128,-1,11
 450.329101562 527 450.329101562 527 433.329101562 527 c 0,12,13
 406.329101562 527 406.329101562 527 438.329101562 587 c 0,14,15
 452.329101562 612 452.329101562 612 452.329101562 616 c 0,16,17
 452.329101562 623 452.329101562 623 426.329101562 662 c 0,18,19
 407.329101562 691 407.329101562 691 400.329101562 697 c 128,-1,20
 393.329101562 703 393.329101562 703 374.329101562 703 c 0,21,22
 348.329101562 703 348.329101562 703 318.329101562 710 c 0,23,24
 289.329101562 718 289.329101562 718 251.329101562 709 c 0,25,26
 226.329101562 704 226.329101562 704 219.329101562 700 c 128,-1,27
 212.329101562 696 212.329101562 696 212.329101562 687 c 0,28,29
 212.329101562 673 212.329101562 673 232.329101562 653 c 0,30,31
 282.329101562 606 282.329101562 606 308.329101562 529 c 0,32,33
 320.329101562 492 320.329101562 492 323.329101562 455 c 128,-1,34
 326.329101562 418 326.329101562 418 328.329101562 268 c 0,35,36
 332.329101562 57 332.329101562 57 340.329101562 44 c 0,37,38
 351.329101562 23 351.329101562 23 379.329101562 1 c 128,-1,39
 407.329101562 -21 407.329101562 -21 441.329101562 -38 c 0,40,41
 511.329101562 -72 511.329101562 -72 478.329101562 -82 c 0,42,43
 471.329101562 -85 471.329101562 -85 457.329101562 -86 c 0,44,45
 425.329101562 -91 425.329101562 -91 391.329101562 -83 c 0,46,47
 360.329101562 -76 360.329101562 -76 323.329101562 -80 c 256,48,49
 286.329101562 -84 286.329101562 -84 278.329101562 -79 c 0,50,51
 263.329101562 -68 263.329101562 -68 260.329101562 10 c 0,52,53
 259.329101562 35 259.329101562 35 256.329101562 166 c 0,54,55
 252.329101562 395 252.329101562 395 245.329101562 427 c 0,56,57
 237.329101562 460 237.329101562 460 208.329101562 521 c 0,58,59
 188.329101562 561 188.329101562 561 172.329101562 582 c 128,-1,60
 156.329101562 603 156.329101562 603 114.329101562 644 c 0,61,62
 38.3291015625 718 38.3291015625 718 27.3291015625 727 c 0,63,64
 -9.6708984375 761 -9.6708984375 761 32.3291015625 769 c 0,0,1
EndSplineSet
EndChar

StartChar: M
Encoding: 77 77 22
Width: 555
Flags: W
LayerCount: 2
Fore
SplineSet
15.142578125 763 m 2,0,-1
 21.142578125 800 l 1,1,-1
 111.142578125 800 l 2,2,3
 201.142578125 800 201.142578125 800 201.142578125 795 c 0,4,5
 201.142578125 789 201.142578125 789 190.142578125 775 c 0,6,7
 180.142578125 760 180.142578125 760 183.142578125 710 c 0,8,9
 184.142578125 679 184.142578125 679 189.142578125 659.5 c 128,-1,10
 194.142578125 640 194.142578125 640 210.142578125 607 c 0,11,12
 230.142578125 565 230.142578125 565 253.142578125 538 c 128,-1,13
 276.142578125 511 276.142578125 511 288.142578125 516 c 256,14,15
 300.142578125 521 300.142578125 521 323.142578125 555 c 128,-1,16
 346.142578125 589 346.142578125 589 357.142578125 618 c 0,17,18
 366.142578125 642 366.142578125 642 368.142578125 661 c 128,-1,19
 370.142578125 680 370.142578125 680 368.142578125 727 c 2,20,-1
 365.142578125 800 l 1,21,-1
 545.142578125 800 l 1,22,-1
 545.142578125 236 l 1,23,-1
 523.142578125 149 l 2,24,25
 499.142578125 54 499.142578125 54 467.642578125 -1.5 c 128,-1,26
 436.142578125 -57 436.142578125 -57 405.142578125 -57 c 0,27,28
 389.142578125 -57 389.142578125 -57 389.142578125 -53 c 256,29,30
 389.142578125 -49 389.142578125 -49 416.142578125 3 c 0,31,32
 446.142578125 62 446.142578125 62 453.142578125 114 c 128,-1,33
 460.142578125 166 460.142578125 166 460.142578125 326 c 0,34,35
 460.142578125 472 460.142578125 472 454.142578125 528.5 c 128,-1,36
 448.142578125 585 448.142578125 585 432.142578125 595 c 0,37,38
 422.142578125 601 422.142578125 601 405.642578125 583.5 c 128,-1,39
 389.142578125 566 389.142578125 566 358.142578125 515 c 0,40,41
 341.142578125 486 341.142578125 486 331.142578125 476.5 c 128,-1,42
 321.142578125 467 321.142578125 467 306.142578125 462 c 0,43,44
 283.142578125 456 283.142578125 456 258.642578125 462.5 c 128,-1,45
 234.142578125 469 234.142578125 469 226.142578125 484 c 256,46,47
 218.142578125 499 218.142578125 499 172.142578125 545.5 c 128,-1,48
 126.142578125 592 126.142578125 592 120.142578125 592 c 0,49,50
 112.142578125 592 112.142578125 592 95.642578125 573 c 128,-1,51
 79.142578125 554 79.142578125 554 74.142578125 540 c 0,52,53
 70.142578125 525 70.142578125 525 65.142578125 428 c 0,54,55
 60.142578125 333 60.142578125 333 55.142578125 328 c 0,56,57
 51.142578125 322 51.142578125 322 38.142578125 337 c 0,58,59
 25.142578125 350 25.142578125 350 17.142578125 418 c 0,60,61
 11.142578125 477 11.142578125 477 10.142578125 599.5 c 128,-1,62
 9.142578125 722 9.142578125 722 15.142578125 763 c 2,0,-1
EndSplineSet
EndChar

StartChar: N
Encoding: 78 78 23
Width: 478
Flags: W
LayerCount: 2
Fore
SplineSet
54 765 m 0,0,1
 79 771 79 771 147 773 c 128,-1,2
 215 775 215 775 246 769 c 0,3,4
 271 766 271 766 273.5 756 c 128,-1,5
 276 746 276 746 255 727 c 0,6,7
 235 708 235 708 229 689.5 c 128,-1,8
 223 671 223 671 226 638 c 0,9,10
 231 587 231 587 272 521.5 c 128,-1,11
 313 456 313 456 340 456 c 0,12,13
 361 456 361 456 387 500 c 128,-1,14
 413 544 413 544 413 579 c 0,15,16
 413 599 413 599 424 631.5 c 128,-1,17
 435 664 435 664 442 664 c 0,18,19
 453 664 453 664 460.5 636.5 c 128,-1,20
 468 609 468 609 468 569 c 0,21,22
 467 520 467 520 449.5 461.5 c 128,-1,23
 432 403 432 403 405 355 c 0,24,25
 384 318 384 318 370 305 c 128,-1,26
 356 292 356 292 341 297 c 0,27,28
 329 301 329 301 299.5 340.5 c 128,-1,29
 270 380 270 380 270 392 c 0,30,31
 270 397 270 397 267 400.5 c 128,-1,32
 264 404 264 404 260 404 c 0,33,34
 251 404 251 404 251 371 c 0,35,36
 251 340 251 340 231 260 c 128,-1,37
 211 180 211 180 198 158 c 0,38,39
 186 136 186 136 186 129 c 0,40,41
 186 116 186 116 152 54.5 c 128,-1,42
 118 -7 118 -7 99 -27 c 0,43,44
 61 -66 61 -66 56 -50 c 0,45,46
 56 -43 56 -43 84 20 c 0,47,48
 118 95 118 95 127.5 143 c 128,-1,49
 137 191 137 191 139 298 c 0,50,51
 140 375 140 375 138.5 403 c 128,-1,52
 137 431 137 431 131 442 c 0,53,54
 122 459 122 459 117 489 c 0,55,56
 112 521 112 521 57 627 c 0,57,58
 57 628 57 628 55 630 c 0,59,60
 10 719 10 719 10 736 c 128,-1,61
 10 753 10 753 52 764 c 0,62,63
 53 765 53 765 54 765 c 0,0,1
EndSplineSet
EndChar

StartChar: O
Encoding: 79 79 24
Width: 526
Flags: W
LayerCount: 2
Fore
SplineSet
10 796 m 256,0,1
 10 800 10 800 253.5 800 c 128,-1,2
 497 800 497 800 497 795.5 c 128,-1,3
 497 791 497 791 481 770 c 0,4,5
 467 752 467 752 465 728 c 128,-1,6
 463 704 463 704 475 682 c 0,7,8
 486 661 486 661 501 601 c 0,9,10
 511 560 511 560 513.5 528.5 c 128,-1,11
 516 497 516 497 516 418 c 0,12,13
 516 341 516 341 513 303.5 c 128,-1,14
 510 266 510 266 500 209 c 0,15,16
 486 139 486 139 470.5 101.5 c 128,-1,17
 455 64 455 64 424 23 c 0,18,19
 407 0 407 0 381 -20 c 128,-1,20
 355 -40 355 -40 350 -35 c 0,21,22
 347 -32 347 -32 366 6 c 0,23,24
 395 60 395 60 407 86 c 2,25,-1
 429 128 l 1,26,-1
 428 242 l 2,27,28
 428 365 428 365 420 435 c 128,-1,29
 412 505 412 505 391 571 c 0,30,31
 352 686 352 686 298 743 c 0,32,33
 281 760 281 760 271.5 764 c 128,-1,34
 262 768 262 768 236 768 c 0,35,36
 207 768 207 768 201.5 763 c 128,-1,37
 196 758 196 758 204 738 c 0,38,39
 208 728 208 728 201 709.5 c 128,-1,40
 194 691 194 691 179 673 c 0,41,42
 168 659 168 659 154 625 c 0,43,44
 121 541 121 541 103.5 456.5 c 128,-1,45
 86 372 86 372 94 337 c 0,46,47
 101 305 101 305 101 277 c 0,48,49
 101 258 101 258 118.5 203.5 c 128,-1,50
 136 149 136 149 147 134 c 2,51,52
 147 134 147 134 175 87 c 0,53,54
 208 27 208 27 191 27 c 0,55,56
 159 27 159 27 112 104.5 c 128,-1,57
 65 182 65 182 35 284 c 0,58,59
 22 330 22 330 19 357.5 c 128,-1,60
 16 385 16 385 16 472 c 0,61,62
 16 548 16 548 19 581 c 128,-1,63
 22 614 22 614 29 644 c 0,64,65
 42 693 42 693 42 730 c 0,66,67
 42 753 42 753 39.5 762 c 128,-1,68
 37 771 37 771 26 779 c 0,69,70
 10 792 10 792 10 796 c 256,0,1
242 521 m 0,71,72
 271 544 271 544 294 524.5 c 128,-1,73
 317 505 317 505 317 459 c 0,74,75
 317 391 317 391 270 386 c 0,76,77
 230 382 230 382 217 432 c 0,78,79
 210 458 210 458 217 482.5 c 128,-1,80
 224 507 224 507 242 521 c 0,71,72
EndSplineSet
EndChar

StartChar: P
Encoding: 80 80 25
Width: 578
Flags: W
LayerCount: 2
Fore
SplineSet
10 787 m 0,0,1
 10 797 10 797 45.5 798.5 c 128,-1,2
 81 800 81 800 289 800 c 2,3,-1
 568 800 l 1,4,-1
 564 779 l 2,5,6
 561 760 561 760 523 683 c 0,7,8
 486 609 486 609 465 554 c 128,-1,9
 444 499 444 499 416 405 c 0,10,11
 405 369 405 369 402.5 341 c 128,-1,12
 400 313 400 313 400 227 c 0,13,14
 400 104 400 104 412 43 c 0,15,16
 432 -56 432 -56 409 -57 c 0,17,18
 402 -57 402 -57 392 -45 c 0,19,20
 377 -29 377 -29 355 20.5 c 128,-1,21
 333 70 333 70 326 105 c 0,22,23
 313 161 313 161 308 181 c 0,24,25
 301 214 301 214 303 271.5 c 128,-1,26
 305 329 305 329 315 377 c 0,27,28
 325 424 325 424 323 443 c 128,-1,29
 321 462 321 462 306 462 c 0,30,31
 295 462 295 462 257.5 448 c 128,-1,32
 220 434 220 434 199 422 c 0,33,34
 181 412 181 412 175.5 411 c 128,-1,35
 170 410 170 410 162 418 c 0,36,37
 152 427 152 427 146 470 c 0,38,39
 138 545 138 545 105.5 625 c 128,-1,40
 73 705 73 705 36 745 c 0,41,42
 10 774 10 774 10 787 c 0,0,1
411 740 m 0,43,44
 406 751 406 751 387.5 753 c 128,-1,45
 369 755 369 755 265 755 c 0,46,47
 145 755 145 755 131 747 c 0,48,49
 119 740 119 740 139 713 c 0,50,51
 142 709 142 709 153 695 c 0,52,53
 179 661 179 661 186 638 c 0,54,55
 196 607 196 607 212.5 575.5 c 128,-1,56
 229 544 229 544 242 532 c 0,57,58
 259 516 259 516 297 507 c 0,59,60
 330 500 330 500 341 505.5 c 128,-1,61
 352 511 352 511 357 535 c 0,62,63
 360 554 360 554 376 595 c 0,64,65
 397 646 397 646 406.5 686.5 c 128,-1,66
 416 727 416 727 411 740 c 0,43,44
EndSplineSet
EndChar

StartChar: Q
Encoding: 81 81 26
Width: 562
Flags: W
LayerCount: 2
Fore
SplineSet
54.36328125 751 m 0,0,1
 62.36328125 761 62.36328125 761 94.36328125 762 c 128,-1,2
 126.36328125 763 126.36328125 763 295.36328125 760 c 0,3,4
 524.36328125 757 524.36328125 757 526.36328125 756 c 0,5,6
 537.36328125 748 537.36328125 748 499.36328125 671 c 0,7,8
 412.36328125 501 412.36328125 501 367.36328125 358 c 0,9,10
 347.36328125 295 347.36328125 295 343.86328125 275.5 c 128,-1,11
 340.36328125 256 340.36328125 256 347.36328125 250 c 0,12,13
 356.36328125 242 356.36328125 242 439.36328125 241 c 0,14,15
 501.36328125 239 501.36328125 239 513.86328125 236.5 c 128,-1,16
 526.36328125 234 526.36328125 234 538.36328125 219 c 0,17,18
 548.36328125 208 548.36328125 208 550.86328125 198.5 c 128,-1,19
 553.36328125 189 553.36328125 189 552.36328125 168 c 0,20,21
 551.36328125 136 551.36328125 136 539.36328125 129 c 0,22,23
 531.36328125 124 531.36328125 124 525.36328125 127.5 c 128,-1,24
 519.36328125 131 519.36328125 131 506.36328125 146 c 2,25,-1
 485.36328125 171 l 1,26,-1
 418.36328125 169 l 2,27,28
 377.36328125 168 377.36328125 168 362.86328125 165.5 c 128,-1,29
 348.36328125 163 348.36328125 163 344.36328125 156 c 0,30,31
 336.36328125 144 336.36328125 144 345.86328125 98.5 c 128,-1,32
 355.36328125 53 355.36328125 53 373.36328125 12 c 0,33,34
 393.36328125 -32 393.36328125 -32 396.36328125 -57 c 2,35,-1
 399.36328125 -82 l 1,36,-1
 370.36328125 -86 l 2,37,38
 344.36328125 -91 344.36328125 -91 273.36328125 -88 c 0,39,40
 244.36328125 -88 244.36328125 -88 231.86328125 -87.5 c 128,-1,41
 219.36328125 -87 219.36328125 -87 206.36328125 -82.5 c 128,-1,42
 193.36328125 -78 193.36328125 -78 190.86328125 -75 c 128,-1,43
 188.36328125 -72 188.36328125 -72 188.36328125 -59 c 128,-1,44
 188.36328125 -46 188.36328125 -46 191.86328125 -34.5 c 128,-1,45
 195.36328125 -23 195.36328125 -23 203.36328125 3 c 0,46,47
 248.36328125 144 248.36328125 144 235.36328125 162 c 0,48,49
 227.36328125 170 227.36328125 170 161.36328125 170 c 2,50,-1
 94.36328125 170 l 1,51,-1
 71.36328125 144 l 2,52,53
 47.36328125 118 47.36328125 118 47.36328125 108 c 0,54,55
 47.36328125 99 47.36328125 99 38.36328125 99 c 128,-1,56
 29.36328125 99 29.36328125 99 22.36328125 108 c 0,57,58
 12.36328125 120 12.36328125 120 10.36328125 152 c 128,-1,59
 8.36328125 184 8.36328125 184 17.36328125 204 c 0,60,61
 26.36328125 227 26.36328125 227 52.36328125 234.5 c 128,-1,62
 78.36328125 242 78.36328125 242 152.36328125 242 c 0,63,64
 227.36328125 242 227.36328125 242 236.36328125 251 c 0,65,66
 248.36328125 266 248.36328125 266 230.36328125 378 c 0,67,68
 220.36328125 437 220.36328125 437 169.36328125 539 c 128,-1,69
 118.36328125 641 118.36328125 641 65.36328125 708 c 0,70,71
 47.36328125 730 47.36328125 730 45.86328125 735.5 c 128,-1,72
 44.36328125 741 44.36328125 741 54.36328125 751 c 0,0,1
437.36328125 689 m 0,73,74
 437.36328125 700 437.36328125 700 430.86328125 701 c 128,-1,75
 424.36328125 702 424.36328125 702 404.36328125 696 c 0,76,77
 388.36328125 691 388.36328125 691 289.36328125 690 c 256,78,79
 190.36328125 689 190.36328125 689 190.36328125 684 c 0,80,81
 190.36328125 678 190.36328125 678 213.36328125 627 c 0,82,83
 245.36328125 560 245.36328125 560 253.86328125 537.5 c 128,-1,84
 262.36328125 515 262.36328125 515 268.36328125 488 c 0,85,86
 296.36328125 363 296.36328125 363 330.36328125 462 c 0,87,88
 341.36328125 496 341.36328125 496 375.36328125 566 c 128,-1,89
 409.36328125 636 409.36328125 636 424.36328125 658 c 0,90,91
 437.36328125 674 437.36328125 674 437.36328125 689 c 0,73,74
EndSplineSet
EndChar

StartChar: R
Encoding: 82 82 27
Width: 571
Flags: W
LayerCount: 2
Fore
SplineSet
188 729 m 0,0,1
 209 735 209 735 305 732 c 0,2,3
 370 731 370 731 393.5 728 c 128,-1,4
 417 725 417 725 447 714 c 0,5,6
 492 697 492 697 526.5 663.5 c 128,-1,7
 561 630 561 630 561 603 c 0,8,9
 561 560 561 560 501 550 c 0,10,11
 463 543 463 543 409.5 526.5 c 128,-1,12
 356 510 356 510 331 496 c 0,13,14
 294 476 294 476 258.5 440 c 128,-1,15
 223 404 223 404 216 378 c 0,16,17
 203 334 203 334 213.5 160.5 c 128,-1,18
 224 -13 224 -13 242 -59 c 0,19,20
 251 -81 251 -81 249.5 -95 c 128,-1,21
 248 -109 248 -109 237 -109 c 0,22,23
 223 -109 223 -109 200 -68 c 128,-1,24
 177 -27 177 -27 162 24 c 0,25,26
 143 86 143 86 135 105 c 0,27,28
 127 125 127 125 120 160 c 0,29,30
 116 184 116 184 105 235 c 0,31,32
 87 310 87 310 84.5 339.5 c 128,-1,33
 82 369 82 369 91 397 c 0,34,35
 101 433 101 433 123 453 c 0,36,37
 138 467 138 467 221.5 510.5 c 128,-1,38
 305 554 305 554 334 563 c 0,39,40
 366 573 366 573 366 595 c 0,41,42
 366 603 366 603 358 608.5 c 128,-1,43
 350 614 350 614 329 622 c 0,44,45
 263 647 263 647 195 649.5 c 128,-1,46
 127 652 127 652 71 632 c 0,47,48
 10 610 10 610 10 626 c 0,49,50
 10 627 10 627 10 629 c 0,51,52
 14 648 14 648 68 678.5 c 128,-1,53
 122 709 122 709 188 729 c 0,0,1
EndSplineSet
EndChar

StartChar: S
Encoding: 83 83 28
Width: 526
Flags: W
LayerCount: 2
Fore
SplineSet
328.0859375 -101 m 256,0,1
 328.0859375 -95 328.0859375 -95 337.5859375 -83.5 c 128,-1,2
 347.0859375 -72 347.0859375 -72 347.0859375 -68 c 0,3,4
 347.0859375 -61 347.0859375 -61 360.0859375 -36 c 0,5,6
 374.0859375 -10 374.0859375 -10 374.0859375 49 c 128,-1,7
 374.0859375 108 374.0859375 108 359.0859375 151 c 0,8,9
 334.0859375 226 334.0859375 226 257.5859375 317.5 c 128,-1,10
 181.0859375 409 181.0859375 409 82.0859375 483 c 0,11,12
 -4.9140625 548 -4.9140625 548 13.0859375 566 c 0,13,14
 18.0859375 571 18.0859375 571 71.0859375 566 c 0,15,16
 222.0859375 548 222.0859375 548 263.0859375 538 c 0,17,18
 298.0859375 528 298.0859375 528 303.0859375 529 c 128,-1,19
 308.0859375 530 308.0859375 530 308.0859375 547 c 0,20,21
 308.0859375 567 308.0859375 567 287.0859375 592 c 0,22,23
 259.0859375 623 259.0859375 623 256.0859375 627 c 0,24,25
 245.0859375 640 245.0859375 640 200.5859375 678 c 128,-1,26
 156.0859375 716 156.0859375 716 152.0859375 716 c 0,27,28
 147.0859375 716 147.0859375 716 139.0859375 732 c 0,29,30
 130.0859375 749 130.0859375 749 138.5859375 758.5 c 128,-1,31
 147.0859375 768 147.0859375 768 168.0859375 764 c 0,32,33
 189.0859375 761 189.0859375 761 214.0859375 766 c 0,34,35
 271.0859375 780 271.0859375 780 363.0859375 770 c 128,-1,36
 455.0859375 760 455.0859375 760 475.0859375 738 c 0,37,38
 488.0859375 724 488.0859375 724 502.0859375 687 c 128,-1,39
 516.0859375 650 516.0859375 650 516.0859375 629 c 0,40,41
 516.0859375 599 516.0859375 599 506.0859375 599 c 0,42,43
 495.0859375 599 495.0859375 599 455.0859375 641 c 0,44,45
 422.0859375 675 422.0859375 675 409.5859375 683.5 c 128,-1,46
 397.0859375 692 397.0859375 692 369.0859375 697 c 0,47,48
 329.0859375 705 329.0859375 705 309.0859375 697 c 0,49,50
 289.0859375 687 289.0859375 687 289.0859375 682 c 0,51,52
 289.0859375 675 289.0859375 675 315.0859375 650 c 0,53,54
 340.0859375 626 340.0859375 626 364.0859375 590 c 0,55,56
 379.0859375 567 379.0859375 567 384.5859375 550.5 c 128,-1,57
 390.0859375 534 390.0859375 534 393.0859375 500 c 0,58,59
 399.0859375 453 399.0859375 453 393.0859375 431.5 c 128,-1,60
 387.0859375 410 387.0859375 410 370.0859375 410 c 0,61,62
 355.0859375 410 355.0859375 410 336.0859375 426 c 0,63,64
 319.0859375 440 319.0859375 440 291.0859375 454.5 c 128,-1,65
 263.0859375 469 263.0859375 469 253.0859375 469 c 0,66,67
 230.0859375 469 230.0859375 469 259.0859375 432 c 0,68,69
 261.0859375 429 261.0859375 429 265.0859375 425 c 0,70,71
 297.0859375 389 297.0859375 389 341.5859375 318 c 128,-1,72
 386.0859375 247 386.0859375 247 404.0859375 202 c 0,73,74
 420.0859375 160 420.0859375 160 424.0859375 140.5 c 128,-1,75
 428.0859375 121 428.0859375 121 428.0859375 75 c 0,76,77
 428.0859375 27 428.0859375 27 425.0859375 14 c 128,-1,78
 422.0859375 1 422.0859375 1 404.0859375 -26 c 0,79,80
 364.0859375 -82 364.0859375 -82 337.0859375 -101 c 0,81,82
 328.0859375 -107 328.0859375 -107 328.0859375 -101 c 256,0,1
EndSplineSet
EndChar

StartChar: T
Encoding: 84 84 29
Width: 492
Flags: W
LayerCount: 2
Fore
SplineSet
267.532226562 798 m 128,-1,1
 267.532226562 800 267.532226562 800 316.532226562 800 c 0,2,3
 355.532226562 800 355.532226562 800 367.532226562 794.5 c 128,-1,4
 379.532226562 789 379.532226562 789 417.532226562 756 c 0,5,6
 443.532226562 734 443.532226562 734 463.032226562 702 c 128,-1,7
 482.532226562 670 482.532226562 670 482.532226562 651 c 0,8,9
 482.532226562 630 482.532226562 630 460.532226562 609 c 128,-1,10
 438.532226562 588 438.532226562 588 388.532226562 564 c 0,11,12
 354.532226562 546 354.532226562 546 338.532226562 542 c 128,-1,13
 322.532226562 538 322.532226562 538 285.532226562 538 c 0,14,15
 233.532226562 537 233.532226562 537 208.532226562 543 c 0,16,17
 163.532226562 553 163.532226562 553 198.532226562 510 c 0,18,19
 215.532226562 490 215.532226562 490 233.032226562 452.5 c 128,-1,20
 250.532226562 415 250.532226562 415 258.532226562 382 c 0,21,22
 285.532226562 267 285.532226562 267 241.532226562 56 c 0,23,24
 229.532226562 0 229.532226562 0 229.532226562 -37 c 2,25,-1
 229.532226562 -71 l 1,26,-1
 264.532226562 -69 l 2,27,28
 329.532226562 -63 329.532226562 -63 409.532226562 1 c 0,29,30
 450.532226562 34 450.532226562 34 454.532226562 32 c 0,31,32
 457.532226562 28 457.532226562 28 440.532226562 -3.5 c 128,-1,33
 423.532226562 -35 423.532226562 -35 399.532226562 -68 c 2,34,-1
 370.532226562 -109 l 1,35,-1
 82.5322265625 -109 l 1,36,-1
 60.5322265625 -58 l 2,37,38
 48.5322265625 -31 48.5322265625 -31 41.5322265625 -4.5 c 128,-1,39
 34.5322265625 22 34.5322265625 22 34.5322265625 37 c 128,-1,40
 34.5322265625 52 34.5322265625 52 41.5322265625 53 c 0,41,42
 45.5322265625 53 45.5322265625 53 51.5322265625 46.5 c 128,-1,43
 57.5322265625 40 57.5322265625 40 62.5322265625 31 c 0,44,45
 76.5322265625 7 76.5322265625 7 109.532226562 -25 c 0,46,47
 131.532226562 -47 131.532226562 -47 140.032226562 -52.5 c 128,-1,48
 148.532226562 -58 148.532226562 -58 156.532226562 -53 c 0,49,50
 163.532226562 -48 163.532226562 -48 165.532226562 -30 c 128,-1,51
 167.532226562 -12 167.532226562 -12 169.532226562 54 c 0,52,53
 171.532226562 150 171.532226562 150 164.532226562 199 c 0,54,55
 140.532226562 339 140.532226562 339 108.532226562 425.5 c 128,-1,56
 76.5322265625 512 76.5322265625 512 18.5322265625 595 c 0,57,58
 -4.4677734375 627 -4.4677734375 627 34.5322265625 638 c 0,59,60
 47.5322265625 642 47.5322265625 642 200.532226562 644 c 0,61,62
 339.532226562 644 339.532226562 644 356.532226562 652 c 0,63,64
 369.532226562 659 369.532226562 659 357.532226562 684 c 0,65,66
 355.532226562 688 355.532226562 688 351.532226562 695 c 0,67,68
 336.532226562 725 336.532226562 725 302.032226562 760.5 c 128,-1,0
 267.532226562 796 267.532226562 796 267.532226562 798 c 128,-1,1
EndSplineSet
EndChar

StartChar: U
Encoding: 85 85 30
Width: 491
Flags: W
LayerCount: 2
Fore
SplineSet
83.5234375 743 m 0,0,1
 100.5234375 747 100.5234375 747 160.5234375 743.5 c 128,-1,2
 220.5234375 740 220.5234375 740 241.0234375 740 c 128,-1,3
 261.5234375 740 261.5234375 740 297.5234375 745 c 0,4,5
 330.5234375 749 330.5234375 749 377.0234375 745 c 128,-1,6
 423.5234375 741 423.5234375 741 423.5234375 734 c 0,7,8
 423.5234375 729 423.5234375 729 400.5234375 708.5 c 128,-1,9
 377.5234375 688 377.5234375 688 377.5234375 676 c 0,10,11
 377.5234375 662 377.5234375 662 403.5234375 613 c 0,12,13
 428.5234375 562 428.5234375 562 444.5234375 521 c 0,14,15
 479.5234375 434 479.5234375 434 481.5234375 322 c 128,-1,16
 483.5234375 210 483.5234375 210 454.0234375 112 c 128,-1,17
 424.5234375 14 424.5234375 14 371.5234375 -33 c 0,18,19
 335.5234375 -66 335.5234375 -66 307.5234375 -76 c 128,-1,20
 279.5234375 -86 279.5234375 -86 225.5234375 -86 c 2,21,-1
 159.5234375 -86 l 1,22,-1
 118.5234375 -59 l 2,23,24
 43.5234375 -10 43.5234375 -10 21.5234375 80.5 c 128,-1,25
 -0.4765625 171 -0.4765625 171 19.5234375 346 c 0,26,27
 29.5234375 434 29.5234375 434 62.5234375 462 c 0,28,29
 69.5234375 468 69.5234375 468 74.5234375 467.5 c 128,-1,30
 79.5234375 467 79.5234375 467 90.5234375 461 c 0,31,32
 110.5234375 449 110.5234375 449 128.0234375 425.5 c 128,-1,33
 145.5234375 402 145.5234375 402 148.5234375 382 c 0,34,35
 152.5234375 361 152.5234375 361 145.0234375 359 c 128,-1,36
 137.5234375 357 137.5234375 357 114.5234375 375 c 0,37,38
 93.5234375 391 93.5234375 391 86.5234375 391 c 0,39,40
 71.5234375 391 71.5234375 391 67.0234375 327.5 c 128,-1,41
 62.5234375 264 62.5234375 264 75.5234375 219 c 0,42,43
 107.5234375 104 107.5234375 104 169.5234375 38 c 0,44,45
 192.5234375 14 192.5234375 14 211.5234375 4.5 c 128,-1,46
 230.5234375 -5 230.5234375 -5 257.5234375 -5 c 0,47,48
 288.5234375 -5 288.5234375 -5 308.0234375 6.5 c 128,-1,49
 327.5234375 18 327.5234375 18 346.5234375 47 c 0,50,51
 363.5234375 74 363.5234375 74 370.0234375 103 c 128,-1,52
 376.5234375 132 376.5234375 132 383.5234375 211 c 0,53,54
 389.5234375 275 389.5234375 275 392.5234375 278 c 256,55,56
 395.5234375 281 395.5234375 281 383.5234375 328 c 0,57,58
 371.5234375 377 371.5234375 377 371.5234375 393 c 0,59,60
 371.5234375 412 371.5234375 412 349.5234375 455 c 0,61,62
 330.5234375 492 330.5234375 492 290.0234375 548 c 128,-1,63
 249.5234375 604 249.5234375 604 235.5234375 611 c 0,64,65
 220.5234375 620 220.5234375 620 188.5234375 647 c 0,66,67
 154.5234375 677 154.5234375 677 106.5234375 700 c 0,68,69
 61.5234375 721 61.5234375 721 62.5234375 731 c 0,70,71
 63.5234375 738 63.5234375 738 83.5234375 743 c 0,0,1
205.5234375 299 m 0,72,73
 238.5234375 309 238.5234375 309 262.5234375 296 c 128,-1,74
 286.5234375 283 286.5234375 283 290.5234375 254 c 0,75,76
 293.5234375 239 293.5234375 239 290.0234375 233 c 128,-1,77
 286.5234375 227 286.5234375 227 271.5234375 218 c 0,78,79
 239.5234375 195 239.5234375 195 205.0234375 206.5 c 128,-1,80
 170.5234375 218 170.5234375 218 170.5234375 251 c 0,81,82
 170.5234375 289 170.5234375 289 205.5234375 299 c 0,72,73
EndSplineSet
EndChar

StartChar: V
Encoding: 86 86 31
Width: 583
Flags: W
LayerCount: 2
Fore
SplineSet
98 744 m 0,0,1
 113 746 113 746 263 747 c 0,2,3
 440 748 440 748 462 737 c 0,4,5
 477 729 477 729 459 703 c 0,6,7
 444 682 444 682 447.5 662 c 128,-1,8
 451 642 451 642 478 597 c 0,9,10
 554 476 554 476 569 405 c 0,11,12
 576 371 576 371 573 275 c 0,13,14
 571 213 571 213 567.5 187.5 c 128,-1,15
 564 162 564 162 552 129 c 0,16,17
 530 65 530 65 488 9.5 c 128,-1,18
 446 -46 446 -46 396 -79 c 0,19,20
 359 -104 359 -104 345 -94 c 0,21,22
 341 -91 341 -91 341 -86 c 0,23,24
 341 -76 341 -76 392 -23 c 0,25,26
 443 32 443 32 465 79 c 0,27,28
 481 115 481 115 484 132.5 c 128,-1,29
 487 150 487 150 487 209 c 0,30,31
 487 273 487 273 479 315.5 c 128,-1,32
 471 358 471 358 446 423 c 0,33,34
 420 494 420 494 367 579 c 0,35,36
 308 677 308 677 279 677 c 0,37,38
 262 677 262 677 233 631 c 128,-1,39
 204 585 204 585 178.5 519 c 128,-1,40
 153 453 153 453 144 401 c 0,41,42
 137 357 137 357 137 284.5 c 128,-1,43
 137 212 137 212 144 167 c 0,44,45
 158 79 158 79 218 -37 c 0,46,47
 244 -87 244 -87 244 -92 c 0,48,49
 244 -96 244 -96 227 -96 c 0,50,51
 211 -96 211 -96 175.5 -63 c 128,-1,52
 140 -30 140 -30 114 8 c 0,53,54
 88 45 88 45 62 96.5 c 128,-1,55
 36 148 36 148 36 160 c 0,56,57
 36 174 36 174 23 214 c 0,58,59
 10 256 10 256 10 279 c 0,60,61
 10 298 10 298 22.5 358.5 c 128,-1,62
 35 419 35 419 47 456 c 0,63,64
 50 466 50 466 56 485 c 128,-1,65
 62 504 62 504 65.5 515.5 c 128,-1,66
 69 527 69 527 75 542.5 c 128,-1,67
 81 558 81 558 87 571 c 0,68,69
 103 602 103 602 102 643 c 128,-1,70
 101 684 101 684 85 705 c 0,71,72
 72 722 72 722 74.5 730 c 128,-1,73
 77 738 77 738 98 744 c 0,0,1
EndSplineSet
EndChar

StartChar: W
Encoding: 87 87 32
Width: 614
Flags: W
LayerCount: 2
Fore
SplineSet
520.538085938 795 m 256,0,1
 520.538085938 800 520.538085938 800 562.538085938 800 c 128,-1,2
 604.538085938 800 604.538085938 800 604.538085938 795 c 0,3,4
 604.538085938 785 604.538085938 785 592.538085938 728.5 c 128,-1,5
 580.538085938 672 580.538085938 672 575.538085938 655 c 0,6,7
 568.538085938 635 568.538085938 635 548.038085938 610.5 c 128,-1,8
 527.538085938 586 527.538085938 586 518.538085938 586 c 0,9,10
 512.538085938 586 512.538085938 586 517.538085938 630 c 0,11,12
 520.538085938 660 520.538085938 660 518.538085938 669 c 128,-1,13
 516.538085938 678 516.538085938 678 506.538085938 688 c 0,14,15
 488.538085938 704 488.538085938 704 462.038085938 710.5 c 128,-1,16
 435.538085938 717 435.538085938 717 416.538085938 709 c 0,17,18
 371.538085938 690 371.538085938 690 371.538085938 616 c 0,19,20
 371.538085938 540 371.538085938 540 419.538085938 495 c 0,21,22
 442.538085938 473 442.538085938 473 444.038085938 445 c 128,-1,23
 445.538085938 417 445.538085938 417 426.538085938 338 c 0,24,25
 376.538085938 135 376.538085938 135 310.538085938 1 c 0,26,27
 286.538085938 -49 286.538085938 -49 278.038085938 -58.5 c 128,-1,28
 269.538085938 -68 269.538085938 -68 249.538085938 -73 c 0,29,30
 224.538085938 -78 224.538085938 -78 194.038085938 -74 c 128,-1,31
 163.538085938 -70 163.538085938 -70 163.538085938 -61 c 0,32,33
 163.538085938 -53 163.538085938 -53 184.538085938 -27 c 0,34,35
 210.538085938 4 210.538085938 4 219.538085938 21 c 128,-1,36
 228.538085938 38 228.538085938 38 225.538085938 51 c 0,37,38
 220.538085938 66 220.538085938 66 215.538085938 66 c 0,39,40
 203.538085938 66 203.538085938 66 153.038085938 120.5 c 128,-1,41
 102.538085938 175 102.538085938 175 71.5380859375 221 c 0,42,43
 49.5380859375 254 49.5380859375 254 38.0380859375 274 c 128,-1,44
 26.5380859375 294 26.5380859375 294 18.5380859375 319.5 c 128,-1,45
 10.5380859375 345 10.5380859375 345 10.0380859375 363.5 c 128,-1,46
 9.5380859375 382 9.5380859375 382 15.5380859375 414.5 c 128,-1,47
 21.5380859375 447 21.5380859375 447 31.5380859375 478.5 c 128,-1,48
 41.5380859375 510 41.5380859375 510 60.5380859375 565 c 2,49,-1
 95.5380859375 664 l 1,50,-1
 72.5380859375 705 l 2,51,52
 50.5380859375 747 50.5380859375 747 55.5380859375 753 c 0,53,54
 60.5380859375 757 60.5380859375 757 266.538085938 761 c 0,55,56
 406.538085938 763 406.538085938 763 443.038085938 765.5 c 128,-1,57
 479.538085938 768 479.538085938 768 496.538085938 777 c 0,58,59
 520.538085938 790 520.538085938 790 520.538085938 795 c 256,0,1
245.538085938 662 m 0,60,61
 221.538085938 689 221.538085938 689 194.038085938 665 c 128,-1,62
 166.538085938 641 166.538085938 641 138.538085938 569 c 0,63,64
 110.538085938 498 110.538085938 498 104.038085938 462 c 128,-1,65
 97.5380859375 426 97.5380859375 426 104.538085938 386 c 0,66,67
 119.538085938 306 119.538085938 306 171.538085938 219 c 0,68,69
 255.538085938 82 255.538085938 82 279.538085938 143 c 0,70,71
 307.538085938 216 307.538085938 216 319.538085938 323 c 128,-1,72
 331.538085938 430 331.538085938 430 319.538085938 498 c 0,73,74
 312.538085938 533 312.538085938 533 288.038085938 587.5 c 128,-1,75
 263.538085938 642 263.538085938 642 245.538085938 662 c 0,60,61
EndSplineSet
EndChar

StartChar: X
Encoding: 88 88 33
Width: 601
Flags: W
LayerCount: 2
Fore
SplineSet
413 793 m 128,-1,1
 413 800 413 800 426 800 c 128,-1,2
 439 800 439 800 439 794 c 128,-1,3
 439 788 439 788 471 757 c 0,4,5
 537 694 537 694 568.5 566 c 128,-1,6
 600 438 600 438 587.5 293.5 c 128,-1,7
 575 149 575 149 520 41 c 0,8,9
 483 -32 483 -32 436 -66 c 0,10,11
 421 -76 421 -76 398.5 -77.5 c 128,-1,12
 376 -79 376 -79 270 -78 c 0,13,14
 162 -76 162 -76 136.5 -78 c 128,-1,15
 111 -80 111 -80 77 -92 c 0,16,17
 30 -109 30 -109 20 -108 c 128,-1,18
 10 -107 10 -107 10 -86 c 0,19,20
 10 -64 10 -64 24 -51.5 c 128,-1,21
 38 -39 38 -39 83 -21 c 0,22,23
 133 -2 133 -2 133 10 c 256,24,25
 133 22 133 22 111 65 c 0,26,27
 89 110 89 110 72 162 c 0,28,29
 61 197 61 197 58 221.5 c 128,-1,30
 55 246 55 246 55 304 c 0,31,32
 55 366 55 366 58.5 389 c 128,-1,33
 62 412 62 412 79 464 c 0,34,35
 98 525 98 525 108.5 548.5 c 128,-1,36
 119 572 119 572 152 627 c 0,37,38
 174 666 174 666 202 697.5 c 128,-1,39
 230 729 230 729 242 729 c 0,40,41
 252 729 252 729 248 717 c 0,42,43
 245 708 245 708 228 675 c 0,44,45
 191 607 191 607 173.5 555.5 c 128,-1,46
 156 504 156 504 151 449 c 0,47,48
 146 388 146 388 146 363.5 c 128,-1,49
 146 339 146 339 152 274 c 0,50,51
 162 177 162 177 200 82 c 0,52,53
 203 76 203 76 208 64 c 0,54,55
 225 21 225 21 234 14 c 128,-1,56
 243 7 243 7 282 8 c 0,57,58
 293 8 293 8 299 8 c 0,59,60
 348 8 348 8 359 10.5 c 128,-1,61
 370 13 370 13 385 29 c 0,62,63
 417 63 417 63 446.5 141.5 c 128,-1,64
 476 220 476 220 486 297 c 0,65,66
 493 354 493 354 493 453 c 128,-1,67
 493 552 493 552 486 601 c 0,68,69
 478 654 478 654 446 719 c 0,70,0
 413 786 413 786 413 793 c 128,-1,1
EndSplineSet
EndChar

StartChar: Y
Encoding: 89 89 34
Width: 534
Flags: W
LayerCount: 2
Fore
SplineSet
103 757 m 0,0,1
 118 760 118 760 173 758 c 0,2,3
 232 756 232 756 253 742.5 c 128,-1,4
 274 729 274 729 280 688 c 0,5,6
 283 668 283 668 286.5 662.5 c 128,-1,7
 290 657 290 657 300 657 c 0,8,9
 318 657 318 657 374 674.5 c 128,-1,10
 430 692 430 692 465 708 c 0,11,12
 507 729 507 729 515 729 c 0,13,14
 537 729 537 729 506 679 c 0,15,16
 501 670 501 670 494 662 c 0,17,18
 383 505 383 505 341 222 c 0,19,20
 339 206 339 206 334.5 178 c 128,-1,21
 330 150 330 150 327.5 135.5 c 128,-1,22
 325 121 325 121 323.5 96 c 128,-1,23
 322 71 322 71 322 44 c 2,24,-1
 322 -16 l 1,25,-1
 363 -34 l 2,26,27
 407 -53 407 -53 421 -61 c 128,-1,28
 435 -69 435 -69 441 -78 c 0,29,30
 449 -89 449 -89 442 -94 c 0,31,32
 434 -103 434 -103 330 -96 c 128,-1,33
 226 -89 226 -89 182 -77 c 0,34,35
 150 -67 150 -67 109 -50.5 c 128,-1,36
 68 -34 68 -34 54 -24 c 0,37,38
 35 -10 35 -10 22.5 12.5 c 128,-1,39
 10 35 10 35 10 56 c 0,40,41
 10 89 10 89 43.5 142.5 c 128,-1,42
 77 196 77 196 98 196 c 0,43,44
 104 196 104 196 109 178 c 128,-1,45
 114 160 114 160 114 134 c 0,46,47
 114 121 114 121 119.5 112 c 128,-1,48
 125 103 125 103 142 88 c 0,49,50
 169 64 169 64 192.5 51 c 128,-1,51
 216 38 216 38 226 42 c 0,52,53
 240 48 240 48 244 138.5 c 128,-1,54
 248 229 248 229 238 323 c 0,55,56
 230 399 230 399 225.5 427 c 128,-1,57
 221 455 221 455 208 498 c 0,58,59
 185 576 185 576 164.5 617 c 128,-1,60
 144 658 144 658 109 698 c 0,61,62
 90 720 90 720 88 736.5 c 128,-1,63
 86 753 86 753 103 757 c 0,0,1
EndSplineSet
EndChar

StartChar: Z
Encoding: 90 90 35
Width: 425
Flags: W
LayerCount: 2
Fore
SplineSet
148.631835938 794 m 0,0,1
 148.631835938 800 148.631835938 800 277.631835938 800 c 2,2,-1
 407.631835938 800 l 1,3,-1
 411.631835938 784 l 2,4,5
 416.631835938 764 416.631835938 764 406.631835938 756.5 c 128,-1,6
 396.631835938 749 396.631835938 749 370.631835938 752.5 c 128,-1,7
 344.631835938 756 344.631835938 756 287.631835938 748 c 128,-1,8
 230.631835938 740 230.631835938 740 211.631835938 731 c 0,9,10
 192.631835938 721 192.631835938 721 194.631835938 710 c 0,11,12
 196.631835938 703 196.631835938 703 215.131835938 700.5 c 128,-1,13
 233.631835938 698 233.631835938 698 303.631835938 695 c 0,14,15
 409.631835938 692 409.631835938 692 412.631835938 690 c 0,16,17
 418.631835938 687 418.631835938 687 412.131835938 668 c 128,-1,18
 405.631835938 649 405.631835938 649 392.631835938 634 c 0,19,20
 346.631835938 580 346.631835938 580 339.631835938 547 c 0,21,22
 335.631835938 525 335.631835938 525 321.631835938 498 c 0,23,24
 301.631835938 459 301.631835938 459 286.631835938 363.5 c 128,-1,25
 271.631835938 268 271.631835938 268 265.631835938 144 c 0,26,27
 263.631835938 102 263.631835938 102 261.631835938 76 c 128,-1,28
 259.631835938 50 259.631835938 50 255.631835938 34 c 128,-1,29
 251.631835938 18 251.631835938 18 246.131835938 13 c 128,-1,30
 240.631835938 8 240.631835938 8 232.631835938 9 c 0,31,32
 220.631835938 12 220.631835938 12 209.131835938 40.5 c 128,-1,33
 197.631835938 69 197.631835938 69 195.631835938 104 c 0,34,35
 191.631835938 149 191.631835938 149 173.631835938 208 c 0,36,37
 154.631835938 268 154.631835938 268 154.631835938 284 c 0,38,39
 154.631835938 298 154.631835938 298 130.131835938 378.5 c 128,-1,40
 105.631835938 459 105.631835938 459 85.6318359375 514 c 0,41,42
 67.6318359375 560 67.6318359375 560 37.6318359375 618 c 0,43,44
 16.6318359375 657 16.6318359375 657 12.1318359375 671 c 128,-1,45
 7.6318359375 685 7.6318359375 685 12.6318359375 694 c 256,46,47
 17.6318359375 703 17.6318359375 703 51.6318359375 720 c 128,-1,48
 85.6318359375 737 85.6318359375 737 115.631835938 745 c 0,49,50
 171.631835938 759 171.631835938 759 168.631835938 774 c 0,51,52
 167.631835938 779 167.631835938 779 157.631835938 783 c 0,53,54
 148.631835938 787 148.631835938 787 148.631835938 794 c 0,0,1
EndSplineSet
EndChar

StartChar: a
Encoding: 97 97 36
Width: 480
Flags: W
LayerCount: 2
Fore
SplineSet
41 561 m 0,0,1
 61 563 61 563 243 562.5 c 128,-1,2
 425 562 425 562 454 560 c 0,3,4
 469 560 469 560 470.5 550.5 c 128,-1,5
 472 541 472 541 457 537 c 0,6,7
 445 533 445 533 396 487 c 0,8,9
 365 457 365 457 353.5 441 c 128,-1,10
 342 425 342 425 330 394 c 0,11,12
 313 345 313 345 305 345 c 0,13,14
 299 345 299 345 291 361 c 128,-1,15
 283 377 283 377 283 390 c 0,16,17
 283 401 283 401 304 453 c 0,18,19
 323 499 323 499 320.5 516 c 128,-1,20
 318 533 318 533 291 538 c 0,21,22
 248 546 248 546 218 527 c 128,-1,23
 188 508 188 508 168 458 c 0,24,25
 158 431 158 431 155.5 407.5 c 128,-1,26
 153 384 153 384 153 301 c 2,27,-1
 153 183 l 1,28,-1
 192 103 l 2,29,30
 222 44 222 44 239 19.5 c 128,-1,31
 256 -5 256 -5 266 -5 c 0,32,33
 274 -5 274 -5 288 10.5 c 128,-1,34
 302 26 302 26 308 42 c 0,35,36
 313 56 313 56 323.5 59 c 128,-1,37
 334 62 334 62 339 51 c 0,38,39
 341 42 341 42 326 7 c 0,40,41
 310 -27 310 -27 306 -49 c 0,42,43
 300 -77 300 -77 289 -77.5 c 128,-1,44
 278 -78 278 -78 246 -49 c 0,45,46
 213 -18 213 -18 128.5 106.5 c 128,-1,47
 44 231 44 231 35 262 c 0,48,49
 26 297 26 297 33.5 326 c 128,-1,50
 41 355 41 355 72 407 c 2,51,-1
 109 470 l 1,52,-1
 99 492 l 2,53,54
 91 509 91 509 66 524.5 c 128,-1,55
 41 540 41 540 23 540 c 0,56,57
 18 540 18 540 14 543 c 128,-1,58
 10 546 10 546 10 549 c 0,59,60
 10 559 10 559 41 561 c 0,0,1
EndSplineSet
EndChar

StartChar: b
Encoding: 98 98 37
Width: 540
Flags: W
LayerCount: 2
Fore
SplineSet
48.8271484375 548 m 0,0,1
 77.8271484375 551 77.8271484375 551 292.827148438 549 c 0,2,3
 308.827148438 549 308.827148438 549 337.827148438 549 c 0,4,5
 483.827148438 549 483.827148438 549 507.827148438 541.5 c 128,-1,6
 531.827148438 534 531.827148438 534 530.827148438 490 c 0,7,8
 530.827148438 481 530.827148438 481 530.827148438 477 c 0,9,10
 530.827148438 434 530.827148438 434 519.827148438 408.5 c 128,-1,11
 508.827148438 383 508.827148438 383 481.827148438 365 c 0,12,13
 469.827148438 356 469.827148438 356 438.327148438 344 c 128,-1,14
 406.827148438 332 406.827148438 332 396.327148438 332 c 128,-1,15
 385.827148438 332 385.827148438 332 392.827148438 346 c 0,16,17
 396.827148438 353 396.827148438 353 403.827148438 355 c 0,18,19
 418.827148438 360 418.827148438 360 434.327148438 383.5 c 128,-1,20
 449.827148438 407 449.827148438 407 449.827148438 427 c 0,21,22
 449.827148438 455 449.827148438 455 436.327148438 473.5 c 128,-1,23
 422.827148438 492 422.827148438 492 392.827148438 506 c 0,24,25
 354.827148438 523 354.827148438 523 300.327148438 526.5 c 128,-1,26
 245.827148438 530 245.827148438 530 206.827148438 518 c 0,27,28
 181.827148438 510 181.827148438 510 176.327148438 505 c 128,-1,29
 170.827148438 500 170.827148438 500 170.827148438 486 c 0,30,31
 170.827148438 467 170.827148438 467 191.827148438 443 c 0,32,33
 242.827148438 383 242.827148438 383 269.327148438 346 c 128,-1,34
 295.827148438 309 295.827148438 309 317.827148438 268 c 0,35,36
 328.827148438 246 328.827148438 246 332.327148438 230 c 128,-1,37
 335.827148438 214 335.827148438 214 335.827148438 186 c 0,38,39
 335.827148438 141 335.827148438 141 326.827148438 125 c 0,40,41
 310.827148438 95 310.827148438 95 256.327148438 46 c 128,-1,42
 201.827148438 -3 201.827148438 -3 139.827148438 -45 c 0,43,44
 36.8271484375 -113 36.8271484375 -113 18.8271484375 -108 c 0,45,46
 6.8271484375 -105 6.8271484375 -105 11.8271484375 -74 c 0,47,48
 17.8271484375 -34 17.8271484375 -34 19.3271484375 74 c 128,-1,49
 20.8271484375 182 20.8271484375 182 15.8271484375 210 c 0,50,51
 2.8271484375 272 2.8271484375 272 18.8271484375 295 c 0,52,53
 27.8271484375 306 27.8271484375 306 39.8271484375 292 c 0,54,55
 45.8271484375 285 45.8271484375 285 55.8271484375 222 c 0,56,57
 79.8271484375 88 79.8271484375 88 115.827148438 53 c 0,58,59
 134.827148438 35 134.827148438 35 148.827148438 37 c 128,-1,60
 162.827148438 39 162.827148438 39 190.827148438 64 c 0,61,62
 208.827148438 81 208.827148438 81 212.327148438 90.5 c 128,-1,63
 215.827148438 100 215.827148438 100 215.827148438 133 c 2,64,-1
 215.827148438 179 l 1,65,-1
 164.827148438 232 l 2,66,67
 119.827148438 279 119.827148438 279 109.327148438 305 c 128,-1,68
 98.8271484375 331 98.8271484375 331 98.8271484375 401 c 0,69,70
 98.8271484375 444 98.8271484375 444 96.3271484375 459 c 128,-1,71
 93.8271484375 474 93.8271484375 474 83.8271484375 489 c 0,72,73
 70.8271484375 511 70.8271484375 511 44.8271484375 523 c 0,74,75
 20.8271484375 535 20.8271484375 535 20.8271484375 540.5 c 128,-1,76
 20.8271484375 546 20.8271484375 546 48.8271484375 548 c 0,0,1
EndSplineSet
EndChar

StartChar: c
Encoding: 99 99 38
Width: 555
Flags: W
LayerCount: 2
Fore
SplineSet
55.142578125 548 m 0,0,1
 75.142578125 552 75.142578125 552 296.142578125 551 c 0,2,3
 454.142578125 550 454.142578125 550 490.142578125 548 c 128,-1,4
 526.142578125 546 526.142578125 546 534.142578125 538 c 0,5,6
 542.142578125 531 542.142578125 531 543.642578125 485 c 128,-1,7
 545.142578125 439 545.142578125 439 545.142578125 233 c 0,8,9
 545.142578125 -60 545.142578125 -60 537.142578125 -84 c 0,10,11
 529.142578125 -107 529.142578125 -107 517.142578125 -110 c 0,12,13
 510.142578125 -111 510.142578125 -111 509.142578125 -103 c 0,14,15
 509.142578125 -102 509.142578125 -102 509.142578125 -101 c 0,16,17
 509.142578125 -99 509.142578125 -99 508.142578125 -87.5 c 128,-1,18
 507.142578125 -76 507.142578125 -76 505.642578125 -52.5 c 128,-1,19
 504.142578125 -29 504.142578125 -29 502.142578125 -12 c 0,20,21
 491.142578125 146 491.142578125 146 491.142578125 151 c 0,22,23
 481.142578125 280 481.142578125 280 467.642578125 327.5 c 128,-1,24
 454.142578125 375 454.142578125 375 419.142578125 403 c 0,25,26
 403.142578125 416 403.142578125 416 397.142578125 424.5 c 128,-1,27
 391.142578125 433 391.142578125 433 395.642578125 438 c 128,-1,28
 400.142578125 443 400.142578125 443 415.142578125 446 c 0,29,30
 434.142578125 450 434.142578125 450 453.142578125 468.5 c 128,-1,31
 472.142578125 487 472.142578125 487 469.142578125 497 c 0,32,33
 466.142578125 504 466.142578125 504 433.142578125 506 c 128,-1,34
 400.142578125 508 400.142578125 508 279.142578125 508 c 0,35,36
 105.142578125 508 105.142578125 508 97.142578125 502 c 0,37,38
 95.142578125 500 95.142578125 500 95.142578125 497 c 0,39,40
 97.142578125 485 97.142578125 485 144.142578125 462 c 0,41,42
 191.142578125 440 191.142578125 440 191.142578125 436 c 0,43,44
 192.142578125 433 192.142578125 433 163.142578125 403 c 0,45,46
 130.142578125 368 130.142578125 368 114.142578125 328.5 c 128,-1,47
 98.142578125 289 98.142578125 289 84.142578125 207 c 0,48,49
 68.142578125 112 68.142578125 112 68.142578125 61 c 0,50,51
 68.142578125 17 68.142578125 17 57.142578125 -39.5 c 128,-1,52
 46.142578125 -96 46.142578125 -96 38.142578125 -96 c 0,53,54
 31.142578125 -96 31.142578125 -96 19.142578125 -55 c 0,55,56
 12.142578125 -29 12.142578125 -29 10.642578125 22.5 c 128,-1,57
 9.142578125 74 9.142578125 74 11.142578125 238 c 0,58,59
 12.142578125 418 12.142578125 418 14.642578125 458.5 c 128,-1,60
 17.142578125 499 17.142578125 499 26.142578125 518 c 0,61,62
 38.142578125 542 38.142578125 542 55.142578125 548 c 0,0,1
EndSplineSet
EndChar

StartChar: d
Encoding: 100 100 39
Width: 465
Flags: W
LayerCount: 2
Fore
SplineSet
206.666992188 553 m 0,0,1
 209.666992188 557 209.666992188 557 295.666992188 555.5 c 128,-1,2
 381.666992188 554 381.666992188 554 422.666992188 549 c 0,3,4
 442.666992188 547 442.666992188 547 446.666992188 542.5 c 128,-1,5
 450.666992188 538 450.666992188 538 454.666992188 517 c 0,6,7
 457.666992188 484 457.666992188 484 453.666992188 415 c 0,8,9
 442.666992188 269 442.666992188 269 453.666992188 63 c 0,10,11
 459.666992188 -81 459.666992188 -81 439.666992188 -88 c 0,12,13
 431.666992188 -90 431.666992188 -90 427.166992188 -80 c 128,-1,14
 422.666992188 -70 422.666992188 -70 417.666992188 -29.5 c 128,-1,15
 412.666992188 11 412.666992188 11 408.666992188 76.5 c 128,-1,16
 404.666992188 142 404.666992188 142 398.666992188 264 c 0,17,18
 392.666992188 382 392.666992188 382 388.666992188 397 c 0,19,20
 383.666992188 413 383.666992188 413 365.666992188 439.5 c 128,-1,21
 347.666992188 466 347.666992188 466 331.666992188 481 c 0,22,23
 310.666992188 500 310.666992188 500 258.666992188 518 c 128,-1,24
 206.666992188 536 206.666992188 536 170.666992188 536 c 0,25,26
 140.666992188 537 140.666992188 537 134.166992188 534.5 c 128,-1,27
 127.666992188 532 127.666992188 532 122.666992188 519 c 0,28,29
 117.666992188 502 117.666992188 502 123.666992188 490.5 c 128,-1,30
 129.666992188 479 129.666992188 479 152.666992188 464 c 0,31,32
 158.666992188 460 158.666992188 460 172.166992188 451 c 128,-1,33
 185.666992188 442 185.666992188 442 189.666992188 440 c 2,34,-1
 204.666992188 429 l 1,35,-1
 183.666992188 392 l 2,36,37
 162.666992188 357 162.666992188 357 155.666992188 323 c 0,38,39
 150.666992188 304 150.666992188 304 146.666992188 297 c 128,-1,40
 142.666992188 290 142.666992188 290 135.666992188 290 c 0,41,42
 123.666992188 290 123.666992188 290 118.666992188 307.5 c 128,-1,43
 113.666992188 325 113.666992188 325 113.666992188 370 c 0,44,45
 112.666992188 424 112.666992188 424 97.6669921875 423 c 0,46,47
 90.6669921875 423 90.6669921875 423 80.6669921875 414 c 0,48,49
 71.6669921875 406 71.6669921875 406 69.6669921875 394.5 c 128,-1,50
 67.6669921875 383 67.6669921875 383 67.6669921875 353 c 0,51,52
 67.6669921875 257 67.6669921875 257 97.6669921875 208 c 0,53,54
 119.666992188 174 119.666992188 174 215.666992188 90 c 0,55,56
 224.666992188 82 224.666992188 82 227.166992188 74.5 c 128,-1,57
 229.666992188 67 229.666992188 67 227.666992188 51 c 0,58,59
 224.666992188 26 224.666992188 26 233.166992188 4 c 128,-1,60
 241.666992188 -18 241.666992188 -18 266.666992188 -47 c 0,61,62
 304.666992188 -94 304.666992188 -94 279.666992188 -96 c 0,63,64
 262.666992188 -96 262.666992188 -96 233.166992188 -75 c 128,-1,65
 203.666992188 -54 203.666992188 -54 137.666992188 5 c 0,66,67
 71.6669921875 65 71.6669921875 65 33.6669921875 170 c 0,68,69
 16.6669921875 218 16.6669921875 218 12.6669921875 246.5 c 128,-1,70
 8.6669921875 275 8.6669921875 275 10.6669921875 329 c 0,71,72
 12.6669921875 389 12.6669921875 389 25.1669921875 425.5 c 128,-1,73
 37.6669921875 462 37.6669921875 462 72.6669921875 512 c 2,74,-1
 96.6669921875 547 l 1,75,-1
 149.666992188 547 l 2,76,77
 202.666992188 547 202.666992188 547 206.666992188 553 c 0,0,1
EndSplineSet
EndChar

StartChar: e
Encoding: 101 101 40
Width: 495
Flags: W
LayerCount: 2
Fore
SplineSet
65 562 m 0,0,1
 90 568 90 568 243 562.5 c 128,-1,2
 396 557 396 557 472 547 c 0,3,4
 478 546 478 546 481 499.5 c 128,-1,5
 484 453 484 453 485 319 c 0,6,7
 486 147 486 147 477 131 c 0,8,9
 471 118 471 118 449 142 c 0,10,11
 446 145 446 145 442 150 c 0,12,13
 419 174 419 174 403.5 182.5 c 128,-1,14
 388 191 388 191 361 193.5 c 128,-1,15
 334 196 334 196 259 196 c 0,16,17
 176 196 176 196 153 194 c 128,-1,18
 130 192 130 192 115 183 c 0,19,20
 89 167 89 167 78.5 144 c 128,-1,21
 68 121 68 121 68 77 c 256,22,23
 68 33 68 33 81 2 c 128,-1,24
 94 -29 94 -29 125 -58 c 0,25,26
 154 -85 154 -85 184.5 -92 c 128,-1,27
 215 -99 215 -99 318 -103 c 2,28,-1
 387 -106 l 2,29,30
 370 -107 370 -107 226 -108 c 2,31,-1
 10 -109 l 1,32,-1
 10 91 l 2,33,34
 10 166 10 166 10.5 212.5 c 128,-1,35
 11 259 11 259 13 288 c 128,-1,36
 15 317 15 317 17.5 328 c 128,-1,37
 20 339 20 339 24 339 c 0,38,39
 29 339 29 339 61 305 c 0,40,41
 94 269 94 269 120 262 c 0,42,43
 157 251 157 251 260.5 256.5 c 128,-1,44
 364 262 364 262 401 277 c 0,45,46
 411 281 411 281 425 316 c 128,-1,47
 439 351 439 351 439 372 c 0,48,49
 439 398 439 398 429.5 427.5 c 128,-1,50
 420 457 420 457 407 471 c 0,51,52
 390 490 390 490 359 505 c 0,53,54
 337 516 337 516 315 518.5 c 128,-1,55
 293 521 293 521 203 521 c 0,56,57
 98 521 98 521 57 524.5 c 128,-1,58
 16 528 16 528 16 537 c 0,59,60
 16 550 16 550 65 562 c 0,0,1
EndSplineSet
EndChar

StartChar: f
Encoding: 102 102 41
Width: 581
Flags: W
LayerCount: 2
Fore
SplineSet
58.6669921875 561 m 0,0,1
 71.6669921875 565 71.6669921875 565 273.166992188 565.5 c 128,-1,2
 474.666992188 566 474.666992188 566 517.666992188 562 c 0,3,4
 561.666992188 558 561.666992188 558 561.666992188 549 c 256,5,6
 561.666992188 540 561.666992188 540 548.666992188 540 c 0,7,8
 525.666992188 540 525.666992188 540 470.666992188 503.5 c 128,-1,9
 415.666992188 467 415.666992188 467 368.666992188 421 c 256,10,11
 321.666992188 375 321.666992188 375 321.666992188 367 c 0,12,13
 321.666992188 358 321.666992188 358 427.666992188 358 c 0,14,15
 531.666992188 358 531.666992188 358 552.666992188 355 c 2,16,-1
 571.666992188 351 l 1,17,-1
 571.666992188 251 l 2,18,19
 572.666992188 151 572.666992188 151 565.666992188 151 c 0,20,21
 557.666992188 151 557.666992188 151 537.666992188 188 c 0,22,23
 502.666992188 252 502.666992188 252 458.666992188 267 c 0,24,25
 434.666992188 274 434.666992188 274 327.666992188 274 c 2,26,-1
 217.666992188 274 l 1,27,-1
 186.666992188 227 l 2,28,29
 159.666992188 187 159.666992188 187 125.166992188 120.5 c 128,-1,30
 90.6669921875 54 90.6669921875 54 81.6669921875 24 c 0,31,32
 57.6669921875 -57 57.6669921875 -57 45.6669921875 -57 c 0,33,34
 39.6669921875 -57 39.6669921875 -57 34.1669921875 -36.5 c 128,-1,35
 28.6669921875 -16 28.6669921875 -16 28.6669921875 9 c 256,36,37
 28.6669921875 34 28.6669921875 34 53.1669921875 100 c 128,-1,38
 77.6669921875 166 77.6669921875 166 107.666992188 225 c 0,39,40
 142.666992188 295 142.666992188 295 179.166992188 344.5 c 128,-1,41
 215.666992188 394 215.666992188 394 271.666992188 449 c 256,42,43
 327.666992188 504 327.666992188 504 327.666992188 512 c 256,44,45
 327.666992188 520 327.666992188 520 287.666992188 521 c 128,-1,46
 247.666992188 522 247.666992188 522 212.666992188 514 c 0,47,48
 151.666992188 503 151.666992188 503 140.666992188 501 c 0,49,50
 115.666992188 496 115.666992188 496 104.166992188 490 c 128,-1,51
 92.6669921875 484 92.6669921875 484 78.6669921875 469 c 0,52,53
 56.6669921875 441 56.6669921875 441 45.6669921875 423 c 0,54,55
 32.6669921875 401 32.6669921875 401 20.6669921875 399 c 0,56,57
 15.6669921875 398 15.6669921875 398 13.1669921875 401.5 c 128,-1,58
 10.6669921875 405 10.6669921875 405 10.1669921875 416 c 128,-1,59
 9.6669921875 427 9.6669921875 427 10.6669921875 445.5 c 128,-1,60
 11.6669921875 464 11.6669921875 464 15.6669921875 494 c 0,61,62
 19.6669921875 531 19.6669921875 531 26.6669921875 542 c 128,-1,63
 33.6669921875 553 33.6669921875 553 58.6669921875 561 c 0,0,1
EndSplineSet
EndChar

StartChar: g
Encoding: 103 103 42
Width: 444
Flags: W
LayerCount: 2
Fore
SplineSet
36.2607421875 536 m 0,0,1
 54.2607421875 539 54.2607421875 539 208.760742188 539.5 c 128,-1,2
 363.260742188 540 363.260742188 540 388.260742188 536 c 256,3,4
 413.260742188 532 413.260742188 532 416.260742188 526 c 128,-1,5
 419.260742188 520 419.260742188 520 401.260742188 506 c 0,6,7
 385.260742188 494 385.260742188 494 385.260742188 488.5 c 128,-1,8
 385.260742188 483 385.260742188 483 407.260742188 447 c 0,9,10
 437.260742188 397 437.260742188 397 434.260742188 345.5 c 128,-1,11
 431.260742188 294 431.260742188 294 394.260742188 221 c 0,12,13
 371.260742188 174 371.260742188 174 349.260742188 142.5 c 128,-1,14
 327.260742188 111 327.260742188 111 293.260742188 74 c 0,15,16
 255.260742188 34 255.260742188 34 255.260742188 28.5 c 128,-1,17
 255.260742188 23 255.260742188 23 227.260742188 5 c 0,18,19
 197.260742188 -14 197.260742188 -14 186.260742188 -26 c 0,20,21
 175.260742188 -37 175.260742188 -37 144.760742188 -53.5 c 128,-1,22
 114.260742188 -70 114.260742188 -70 103.260742188 -70 c 0,23,24
 93.2607421875 -70 93.2607421875 -70 93.2607421875 -64 c 0,25,26
 93.2607421875 -59 93.2607421875 -59 125.260742188 -32.5 c 128,-1,27
 157.260742188 -6 157.260742188 -6 178.260742188 6 c 0,28,29
 196.260742188 17 196.260742188 17 207.260742188 36 c 0,30,31
 219.260742188 56 219.260742188 56 246.260742188 86 c 0,32,33
 269.260742188 111 269.260742188 111 278.760742188 127 c 128,-1,34
 288.260742188 143 288.260742188 143 308.260742188 192 c 0,35,36
 320.260742188 223 320.260742188 223 323.760742188 242 c 128,-1,37
 327.260742188 261 327.260742188 261 327.260742188 303 c 0,38,39
 327.260742188 343 327.260742188 343 324.260742188 363 c 128,-1,40
 321.260742188 383 321.260742188 383 312.260742188 405 c 0,41,42
 291.260742188 456 291.260742188 456 268.260742188 469 c 128,-1,43
 245.260742188 482 245.260742188 482 174.260742188 482 c 0,44,45
 119.260742188 482 119.260742188 482 100.760742188 476.5 c 128,-1,46
 82.2607421875 471 82.2607421875 471 52.2607421875 447 c 0,47,48
 27.2607421875 428 27.2607421875 428 25.2607421875 431 c 0,49,50
 23.2607421875 432 23.2607421875 432 14.2607421875 473 c 0,51,52
 7.2607421875 506 7.2607421875 506 11.7607421875 519 c 128,-1,53
 16.2607421875 532 16.2607421875 532 36.2607421875 536 c 0,0,1
EndSplineSet
EndChar

StartChar: h
Encoding: 104 104 43
Width: 467
Flags: W
LayerCount: 2
Fore
SplineSet
387 549 m 2,0,1
 435 569 435 569 446 564 c 128,-1,2
 457 559 457 559 457 516 c 0,3,4
 457 485 457 485 447.5 462.5 c 128,-1,5
 438 440 438 440 415 416 c 0,6,7
 395 395 395 395 384.5 400.5 c 128,-1,8
 374 406 374 406 376 436 c 256,9,10
 378 466 378 466 367 474 c 128,-1,11
 356 482 356 482 310 482 c 0,12,13
 274 482 274 482 262.5 479.5 c 128,-1,14
 251 477 251 477 243 468 c 0,15,16
 219 441 219 441 220 427 c 128,-1,17
 221 413 221 413 250 374 c 0,18,19
 270 349 270 349 282 339.5 c 128,-1,20
 294 330 294 330 330 312 c 0,21,22
 348 304 348 304 358 297.5 c 128,-1,23
 368 291 368 291 372.5 285 c 128,-1,24
 377 279 377 279 375 274 c 128,-1,25
 373 269 373 269 366 264 c 0,26,27
 357 258 357 258 338 230.5 c 128,-1,28
 319 203 319 203 261 112 c 0,29,30
 234 68 234 68 212 45 c 0,31,32
 194 26 194 26 181 9 c 0,33,34
 171 -6 171 -6 137.5 -30 c 128,-1,35
 104 -54 104 -54 89 -56 c 0,36,37
 58 -63 58 -63 19 -55 c 0,38,39
 10 -53 10 -53 10 -51 c 0,40,41
 14 -44 14 -44 41 -32 c 0,42,43
 102 -2 102 -2 148 69 c 0,44,45
 222 179 222 179 221 276.5 c 128,-1,46
 220 374 220 374 145 436 c 0,47,48
 123 454 123 454 79 477.5 c 128,-1,49
 35 501 35 501 23 501 c 0,50,51
 19 501 19 501 16.5 503.5 c 128,-1,52
 14 506 14 506 15 510 c 0,53,54
 18 519 18 519 58.5 522.5 c 128,-1,55
 99 526 99 526 205 527 c 2,56,-1
 335 527 l 1,57,-1
 387 549 l 2,0,1
EndSplineSet
EndChar

StartChar: i
Encoding: 105 105 44
Width: 371
Flags: W
LayerCount: 2
Fore
SplineSet
42.5 547.5 m 128,-1,1
 58 552 58 552 185 552.5 c 128,-1,2
 312 553 312 553 337 549 c 0,3,4
 361 545 361 545 361 538 c 0,5,6
 361 529 361 529 334 498 c 0,7,8
 307 465 307 465 301 455 c 0,9,10
 296 444 296 444 274 436 c 0,11,12
 259 430 259 430 256 423.5 c 128,-1,13
 253 417 253 417 253 388 c 0,14,15
 253 346 253 346 232 274 c 0,16,17
 211 197 211 197 211 173 c 0,18,19
 211 148 211 148 199 102.5 c 128,-1,20
 187 57 187 57 181 55 c 0,21,22
 165 49 165 49 166 304 c 2,23,-1
 166 456 l 1,24,-1
 146 456 l 2,25,26
 130 456 130 456 102.5 443.5 c 128,-1,27
 75 431 75 431 51 413 c 0,28,29
 31 397 31 397 25 397 c 0,30,31
 13 397 13 397 10.5 451.5 c 128,-1,32
 8 506 8 506 18 527 c 0,33,0
 27 543 27 543 42.5 547.5 c 128,-1,1
EndSplineSet
EndChar

StartChar: j
Encoding: 106 106 45
Width: 536
Flags: W
LayerCount: 2
Fore
SplineSet
210.166992188 550 m 0,0,1
 219.166992188 558 219.166992188 558 346.166992188 549 c 128,-1,2
 473.166992188 540 473.166992188 540 483.166992188 530 c 0,3,4
 484.166992188 530 484.166992188 530 482.666992188 527 c 128,-1,5
 481.166992188 524 481.166992188 524 478.166992188 519 c 128,-1,6
 475.166992188 514 475.166992188 514 472.166992188 509 c 0,7,8
 461.166992188 493 461.166992188 493 458.666992188 473.5 c 128,-1,9
 456.166992188 454 456.166992188 454 465.166992188 445 c 0,10,11
 472.166992188 438 472.166992188 438 486.166992188 394.5 c 128,-1,12
 500.166992188 351 500.166992188 351 510.166992188 306 c 0,13,14
 522.166992188 253 522.166992188 253 524.166992188 71 c 2,15,-1
 526.166992188 -109 l 1,16,-1
 355.166992188 -109 l 1,17,-1
 383.166992188 -81 l 2,18,19
 422.166992188 -42 422.166992188 -42 444.166992188 44 c 0,20,21
 452.166992188 72 452.166992188 72 451.666992188 169.5 c 128,-1,22
 451.166992188 267 451.166992188 267 442.166992188 297 c 0,23,24
 430.166992188 344 430.166992188 344 405.666992188 378 c 128,-1,25
 381.166992188 412 381.166992188 412 337.166992188 442 c 0,26,27
 324.166992188 451 324.166992188 451 307.666992188 453.5 c 128,-1,28
 291.166992188 456 291.166992188 456 239.166992188 456 c 2,29,-1
 162.166992188 456 l 1,30,-1
 129.166992188 422 l 2,31,32
 100.166992188 392 100.166992188 392 84.6669921875 363.5 c 128,-1,33
 69.1669921875 335 69.1669921875 335 58.1669921875 292 c 0,34,35
 38.1669921875 208 38.1669921875 208 24.1669921875 215 c 0,36,37
 18.1669921875 218 18.1669921875 218 14.1669921875 240 c 0,38,39
 9.1669921875 270 9.1669921875 270 10.1669921875 364 c 128,-1,40
 11.1669921875 458 11.1669921875 458 17.1669921875 474 c 0,41,42
 24.1669921875 494 24.1669921875 494 55.1669921875 514 c 0,43,44
 75.1669921875 527 75.1669921875 527 92.6669921875 532 c 128,-1,45
 110.166992188 537 110.166992188 537 147.166992188 541 c 0,46,47
 208.166992188 547 208.166992188 547 210.166992188 550 c 0,0,1
EndSplineSet
EndChar

StartChar: k
Encoding: 107 107 46
Width: 502
Flags: W
LayerCount: 2
Fore
SplineSet
456 544 m 0,0,1
 461 549 461 549 469 546 c 128,-1,2
 477 543 477 543 480 536 c 0,3,4
 485 525 485 525 471 515 c 0,5,6
 450 498 450 498 448 481.5 c 128,-1,7
 446 465 446 465 460 420 c 0,8,9
 474 368 474 368 484 350 c 0,10,11
 492 335 492 335 492 268 c 0,12,13
 492 208 492 208 480 171.5 c 128,-1,14
 468 135 468 135 438 104 c 0,15,16
 406 70 406 70 405 82 c 0,17,18
 405 85 405 85 408 90 c 0,19,20
 427 136 427 136 440 197 c 0,21,22
 446 228 446 228 446.5 244 c 128,-1,23
 447 260 447 260 441 288 c 0,24,25
 432 330 432 330 414 366 c 0,26,27
 397 395 397 395 361.5 435 c 128,-1,28
 326 475 326 475 308 484 c 0,29,30
 281 498 281 498 241.5 506 c 128,-1,31
 202 514 202 514 183 511 c 0,32,33
 140 503 140 503 174 477 c 0,34,35
 190 463 190 463 189 456.5 c 128,-1,36
 188 450 188 450 169 447 c 0,37,38
 147 443 147 443 133 426 c 128,-1,39
 119 409 119 409 106 372 c 0,40,41
 81 295 81 295 100.5 183 c 128,-1,42
 120 71 120 71 166 28 c 0,43,44
 186 10 186 10 201 17 c 128,-1,45
 216 24 216 24 232 59 c 0,46,47
 249 98 249 98 249 108 c 0,48,49
 249 123 249 123 260 117 c 0,50,51
 269 112 269 112 275 97 c 0,52,53
 284 76 284 76 284 20 c 128,-1,54
 284 -36 284 -36 275 -53 c 0,55,56
 269 -63 269 -63 262.5 -66.5 c 128,-1,57
 256 -70 256 -70 243 -70 c 0,58,59
 222 -70 222 -70 205 -60 c 128,-1,60
 188 -50 188 -50 156 -19 c 0,61,62
 107 27 107 27 69 95.5 c 128,-1,63
 31 164 31 164 18 231 c 0,64,65
 10 272 10 272 10 295.5 c 128,-1,66
 10 319 10 319 20 381 c 0,67,68
 25 411 25 411 47.5 460 c 128,-1,69
 70 509 70 509 86 524 c 0,70,71
 94 531 94 531 127.5 533.5 c 128,-1,72
 161 536 161 536 275 538 c 0,73,74
 453 541 453 541 456 544 c 0,0,1
EndSplineSet
EndChar

StartChar: l
Encoding: 108 108 47
Width: 503
Flags: W
LayerCount: 2
Fore
SplineSet
39 549 m 0,0,1
 53 552 53 552 265 551 c 0,2,3
 450 550 450 550 474.5 544 c 128,-1,4
 499 538 499 538 492 517 c 0,5,6
 490 511 490 511 474 478 c 0,7,8
 451 433 451 433 423 402 c 128,-1,9
 395 371 395 371 377 371 c 0,10,11
 348 371 348 371 370 400 c 0,12,13
 389 425 389 425 370 460 c 128,-1,14
 351 495 351 495 319 495 c 0,15,16
 299 495 299 495 274 502 c 0,17,18
 237 512 237 512 196 496 c 0,19,20
 167 484 167 484 185 475 c 0,21,22
 188 473 188 473 192 472 c 0,23,24
 207 467 207 467 235.5 421 c 128,-1,25
 264 375 264 375 273 342 c 0,26,27
 283 303 283 303 283 164 c 2,28,-1
 283 23 l 1,29,-1
 311 -3 l 2,30,31
 339 -30 339 -30 370 -41 c 0,32,33
 411 -55 411 -55 413 -62 c 0,34,35
 414 -65 414 -65 405 -67 c 0,36,37
 393 -71 393 -71 357 -73 c 0,38,39
 313 -77 313 -77 275.5 -75 c 128,-1,40
 238 -73 238 -73 231 -66 c 0,41,42
 227 -62 227 -62 224 101 c 0,43,44
 221 230 221 230 214 272.5 c 128,-1,45
 207 315 207 315 182 365 c 0,46,47
 168 392 168 392 126.5 432.5 c 128,-1,48
 85 473 85 473 48 495 c 0,49,50
 10 517 10 517 10 525 c 0,51,52
 10 532 10 532 18 538.5 c 128,-1,53
 26 545 26 545 39 549 c 0,0,1
EndSplineSet
EndChar

StartChar: m
Encoding: 109 109 48
Width: 554
Flags: W
LayerCount: 2
Fore
SplineSet
394.642578125 537 m 2,0,1
 398.642578125 538 398.642578125 538 509.642578125 545 c 0,2,3
 529.642578125 547 529.642578125 547 535.642578125 535 c 0,4,5
 544.642578125 514 544.642578125 514 544.642578125 342 c 0,6,7
 544.642578125 330 544.642578125 330 544.642578125 310 c 0,8,9
 544.642578125 154 544.642578125 154 542.642578125 118.5 c 128,-1,10
 540.642578125 83 540.642578125 83 528.642578125 50 c 0,11,12
 512.642578125 2 512.642578125 2 498.142578125 -24 c 128,-1,13
 483.642578125 -50 483.642578125 -50 458.642578125 -77 c 0,14,15
 428.642578125 -109 428.642578125 -109 410.642578125 -109 c 2,16,-1
 392.642578125 -109 l 1,17,-1
 414.642578125 -77 l 2,18,19
 447.642578125 -27 447.642578125 -27 455.642578125 12 c 128,-1,20
 463.642578125 51 463.642578125 51 463.642578125 170 c 0,21,22
 463.642578125 311 463.642578125 311 455.642578125 345 c 0,23,24
 449.642578125 368 449.642578125 368 445.642578125 373 c 128,-1,25
 441.642578125 378 441.642578125 378 427.642578125 378 c 0,26,27
 407.642578125 378 407.642578125 378 396.642578125 360 c 0,28,29
 383.642578125 337 383.642578125 337 353.642578125 310.5 c 128,-1,30
 323.642578125 284 323.642578125 284 303.642578125 277 c 0,31,32
 287.642578125 272 287.642578125 272 279.642578125 272 c 128,-1,33
 271.642578125 272 271.642578125 272 259.642578125 279 c 0,34,35
 241.642578125 288 241.642578125 288 204.142578125 316.5 c 128,-1,36
 166.642578125 345 166.642578125 345 152.642578125 361 c 0,37,38
 122.642578125 393 122.642578125 393 94.642578125 364 c 0,39,40
 67.642578125 333 67.642578125 333 67.642578125 268 c 0,41,42
 67.642578125 233 67.642578125 233 63.642578125 201 c 0,43,44
 59.642578125 177 59.642578125 177 55.642578125 176 c 0,45,46
 53.642578125 176 53.642578125 176 50.642578125 180 c 0,47,48
 39.642578125 189 39.642578125 189 35.642578125 191 c 0,49,50
 28.642578125 193 28.642578125 193 21.142578125 247 c 128,-1,51
 13.642578125 301 13.642578125 301 10.642578125 367 c 0,52,53
 7.642578125 442 7.642578125 442 18.642578125 488 c 2,54,-1
 29.642578125 533 l 1,55,-1
 58.642578125 538 l 2,56,57
 82.642578125 541 82.642578125 541 139.642578125 538.5 c 128,-1,58
 196.642578125 536 196.642578125 536 201.642578125 531 c 0,59,60
 205.642578125 528 205.642578125 528 193.642578125 506 c 0,61,62
 177.642578125 475 177.642578125 475 189.142578125 432.5 c 128,-1,63
 200.642578125 390 200.642578125 390 237.642578125 349 c 0,64,65
 264.642578125 318 264.642578125 318 287.142578125 320.5 c 128,-1,66
 309.642578125 323 309.642578125 323 336.642578125 360 c 0,67,68
 363.642578125 398 363.642578125 398 368.642578125 414 c 128,-1,69
 373.642578125 430 373.642578125 430 370.642578125 476 c 2,70,-1
 368.642578125 533 l 1,71,-1
 394.642578125 537 l 2,0,1
EndSplineSet
EndChar

StartChar: n
Encoding: 110 110 49
Width: 418
Flags: W
LayerCount: 2
Fore
SplineSet
236.888671875 537 m 0,0,1
 236.888671875 533 236.888671875 533 213.888671875 503 c 128,-1,2
 190.888671875 473 190.888671875 473 190.888671875 468 c 0,3,4
 190.888671875 456 190.888671875 456 207.388671875 418.5 c 128,-1,5
 223.888671875 381 223.888671875 381 238.888671875 360 c 0,6,7
 257.888671875 331 257.888671875 331 277.888671875 319 c 0,8,9
 290.888671875 311 290.888671875 311 296.888671875 310.5 c 128,-1,10
 302.888671875 310 302.888671875 310 315.888671875 317 c 0,11,12
 331.888671875 325 331.888671875 325 348.388671875 355 c 128,-1,13
 364.888671875 385 364.888671875 385 369.888671875 415 c 0,14,15
 377.888671875 462 377.888671875 462 393.888671875 461 c 0,16,17
 396.888671875 460 396.888671875 460 399.888671875 457 c 0,18,19
 408.888671875 449 408.888671875 449 408.888671875 386 c 0,20,21
 408.888671875 340 408.888671875 340 405.388671875 325 c 128,-1,22
 401.888671875 310 401.888671875 310 382.888671875 275 c 0,23,24
 356.888671875 226 356.888671875 226 331.888671875 207 c 0,25,26
 316.888671875 194 316.888671875 194 309.888671875 192 c 128,-1,27
 302.888671875 190 302.888671875 190 293.888671875 195 c 0,28,29
 279.888671875 203 279.888671875 203 256.888671875 236 c 0,30,31
 233.888671875 268 233.888671875 268 227.888671875 266 c 0,32,33
 220.888671875 263 220.888671875 263 214.888671875 219 c 0,34,35
 210.888671875 176 210.888671875 176 200.888671875 157 c 256,36,37
 190.888671875 138 190.888671875 138 190.888671875 131 c 0,38,39
 190.888671875 120 190.888671875 120 168.388671875 75 c 128,-1,40
 145.888671875 30 145.888671875 30 127.888671875 5 c 0,41,42
 103.888671875 -28 103.888671875 -28 84.388671875 -49 c 128,-1,43
 64.888671875 -70 64.888671875 -70 56.888671875 -70 c 0,44,45
 41.888671875 -70 41.888671875 -70 59.888671875 -41 c 0,46,47
 63.888671875 -33 63.888671875 -33 70.888671875 -23 c 0,48,49
 98.888671875 20 98.888671875 20 109.888671875 72 c 128,-1,50
 120.888671875 124 120.888671875 124 118.888671875 211 c 2,51,-1
 116.888671875 310 l 1,52,-1
 88.888671875 368 l 2,53,54
 60.888671875 425 60.888671875 425 34.888671875 466 c 0,55,56
 6.888671875 510 6.888671875 510 10.388671875 521.5 c 128,-1,57
 13.888671875 533 13.888671875 533 56.888671875 542 c 0,58,59
 112.888671875 554 112.888671875 554 174.888671875 552.5 c 128,-1,60
 236.888671875 551 236.888671875 551 236.888671875 537 c 0,0,1
EndSplineSet
EndChar

StartChar: o
Encoding: 111 111 50
Width: 519
Flags: W
LayerCount: 2
Fore
SplineSet
28 561 m 0,0,1
 51 564 51 564 240.5 564.5 c 128,-1,2
 430 565 430 565 457 562 c 0,3,4
 485 559 485 559 488.5 553 c 128,-1,5
 492 547 492 547 474 532 c 0,6,7
 458 519 458 519 459.5 500 c 128,-1,8
 461 481 461 481 482 438 c 0,9,10
 500 401 500 401 503.5 382 c 128,-1,11
 507 363 507 363 509 292 c 0,12,13
 511 197 511 197 500 146 c 0,14,15
 482 66 482 66 458 23.5 c 128,-1,16
 434 -19 434 -19 390 -47 c 0,17,18
 347 -75 347 -75 341.5 -68.5 c 128,-1,19
 336 -62 336 -62 370 -22 c 0,20,21
 395 8 395 8 413 40 c 0,22,23
 423 60 423 60 424.5 76.5 c 128,-1,24
 426 93 426 93 423 153 c 0,25,26
 419 264 419 264 404.5 325.5 c 128,-1,27
 390 387 390 387 354 447 c 0,28,29
 330 486 330 486 285.5 514.5 c 128,-1,30
 241 543 241 543 214 536 c 0,31,32
 204 534 204 534 201 530 c 128,-1,33
 198 526 198 526 200 517 c 0,34,35
 203 502 203 502 182 477 c 0,36,37
 141 430 141 430 109 337 c 128,-1,38
 77 244 77 244 87 205 c 0,39,40
 95 179 95 179 95 162 c 0,41,42
 95 146 95 146 117.5 101.5 c 128,-1,43
 140 57 140 57 163 29 c 0,44,45
 195 -12 195 -12 181 -18 c 256,46,47
 167 -24 167 -24 125 14 c 0,48,49
 95 42 95 42 63.5 97 c 128,-1,50
 32 152 32 152 20 200 c 0,51,52
 10 239 10 239 10 322.5 c 128,-1,53
 10 406 10 406 21 433 c 0,54,55
 32 459 32 459 34 496 c 0,56,57
 36 520 36 520 34 527.5 c 128,-1,58
 32 535 32 535 24 540 c 0,59,60
 10 548 10 548 11 553.5 c 128,-1,61
 12 559 12 559 28 561 c 0,0,1
224 339 m 0,62,63
 237 352 237 352 260 352 c 128,-1,64
 283 352 283 352 296 338.5 c 128,-1,65
 309 325 309 325 309 302 c 0,66,67
 309 278 309 278 300 267 c 0,68,69
 284 246 284 246 259.5 245 c 128,-1,70
 235 244 235 244 221 263 c 0,71,72
 210 278 210 278 211.5 302.5 c 128,-1,73
 213 327 213 327 224 339 c 0,62,63
EndSplineSet
EndChar

StartChar: p
Encoding: 112 112 51
Width: 534
Flags: W
LayerCount: 2
Fore
SplineSet
183.185546875 576 m 0,0,1
 188.185546875 580 188.185546875 580 253.185546875 577 c 0,2,3
 518.185546875 561 518.185546875 561 521.185546875 560 c 0,4,5
 527.185546875 558 527.185546875 558 521.185546875 538.5 c 128,-1,6
 515.185546875 519 515.185546875 519 502.185546875 501 c 0,7,8
 442.185546875 412 442.185546875 412 389.185546875 258 c 0,9,10
 378.185546875 228 378.185546875 228 375.685546875 204 c 128,-1,11
 373.185546875 180 373.185546875 180 373.185546875 116 c 0,12,13
 373.185546875 18 373.185546875 18 383.185546875 -18 c 0,14,15
 404.185546875 -96 404.185546875 -96 383.185546875 -95 c 0,16,17
 372.185546875 -95 372.185546875 -95 353.185546875 -69 c 0,18,19
 330.185546875 -37 330.185546875 -37 318.685546875 -9.5 c 128,-1,20
 307.185546875 18 307.185546875 18 293.185546875 75 c 0,21,22
 278.185546875 132 278.185546875 132 278.685546875 149.5 c 128,-1,23
 279.185546875 167 279.185546875 167 296.185546875 250 c 0,24,25
 302.185546875 282 302.185546875 282 302.185546875 291 c 0,26,27
 302.185546875 298 302.185546875 298 288.685546875 299.5 c 128,-1,28
 275.185546875 301 275.185546875 301 252.185546875 296.5 c 128,-1,29
 229.185546875 292 229.185546875 292 204.185546875 283 c 0,30,31
 162.185546875 268 162.185546875 268 150.685546875 274 c 128,-1,32
 139.185546875 280 139.185546875 280 133.185546875 320 c 0,33,34
 126.185546875 370 126.185546875 370 93.685546875 436.5 c 128,-1,35
 61.185546875 503 61.185546875 503 38.185546875 514 c 0,36,37
 26.185546875 521 26.185546875 521 16.685546875 536.5 c 128,-1,38
 7.185546875 552 7.185546875 552 11.185546875 557 c 0,39,40
 13.185546875 558 13.185546875 558 97.685546875 566 c 128,-1,41
 182.185546875 574 182.185546875 574 183.185546875 576 c 0,0,1
372.185546875 526 m 0,42,43
 364.185546875 534 364.185546875 534 245.185546875 534 c 0,44,45
 133.185546875 534 133.185546875 534 123.185546875 525 c 0,46,47
 116.185546875 518 116.185546875 518 139.185546875 492 c 0,48,49
 160.185546875 467 160.185546875 467 184.185546875 418 c 0,50,51
 209.185546875 369 209.185546875 369 221.185546875 358 c 0,52,53
 234.185546875 347 234.185546875 347 272.185546875 340 c 128,-1,54
 310.185546875 333 310.185546875 333 319.185546875 340 c 256,55,56
 328.185546875 347 328.185546875 347 328.185546875 355 c 0,57,58
 328.185546875 362 328.185546875 362 354.185546875 416 c 0,59,60
 396.185546875 502 396.185546875 502 372.185546875 526 c 0,42,43
EndSplineSet
EndChar

StartChar: q
Encoding: 113 113 52
Width: 498
Flags: W
LayerCount: 2
Fore
SplineSet
58.3330078125 562 m 0,0,1
 80.3330078125 565 80.3330078125 565 256.333007812 565 c 128,-1,2
 432.333007812 565 432.333007812 565 451.333007812 562 c 0,3,4
 475.333007812 558 475.333007812 558 475.333007812 553 c 256,5,6
 475.333007812 548 475.333007812 548 449.333007812 503 c 0,7,8
 414.333007812 444 414.333007812 444 370.333007812 349.5 c 128,-1,9
 326.333007812 255 326.333007812 255 310.333007812 204 c 0,10,11
 305.333007812 190 305.333007812 190 303.833007812 182.5 c 128,-1,12
 302.333007812 175 302.333007812 175 302.833007812 167 c 128,-1,13
 303.333007812 159 303.333007812 159 309.333007812 157.5 c 128,-1,14
 315.333007812 156 315.333007812 156 324.833007812 153 c 128,-1,15
 334.333007812 150 334.333007812 150 350.833007812 151 c 128,-1,16
 367.333007812 152 367.333007812 152 389.333007812 151 c 0,17,18
 455.333007812 153 455.333007812 153 471.833007812 145 c 128,-1,19
 488.333007812 137 488.333007812 137 488.333007812 103 c 0,20,21
 488.333007812 74 488.333007812 74 479.833007812 67.5 c 128,-1,22
 471.333007812 61 471.333007812 61 452.333007812 76 c 0,23,24
 437.333007812 87 437.333007812 87 423.833007812 89.5 c 128,-1,25
 410.333007812 92 410.333007812 92 365.333007812 92 c 0,26,27
 364.333007812 92 364.333007812 92 360.333007812 92 c 0,28,29
 310.333007812 92 310.333007812 92 303.833007812 86.5 c 128,-1,30
 297.333007812 81 297.333007812 81 306.333007812 47 c 0,31,32
 307.333007812 45 307.333007812 45 307.333007812 44 c 0,33,34
 313.333007812 20 313.333007812 20 329.833007812 -23 c 128,-1,35
 346.333007812 -66 346.333007812 -66 354.333007812 -77 c 0,36,37
 361.333007812 -90 361.333007812 -90 356.333007812 -94 c 0,38,39
 351.333007812 -99 351.333007812 -99 276.333007812 -101.5 c 128,-1,40
 201.333007812 -104 201.333007812 -104 185.333007812 -99 c 0,41,42
 174.333007812 -97 174.333007812 -97 172.333007812 -92 c 128,-1,43
 170.333007812 -87 170.333007812 -87 172.333007812 -68 c 0,44,45
 174.333007812 -50 174.333007812 -50 192.333007812 6 c 128,-1,46
 210.333007812 62 210.333007812 62 212.333007812 71 c 2,47,-1
 217.333007812 92 l 1,48,-1
 67.3330078125 92 l 1,49,-1
 50.3330078125 69 l 2,50,51
 33.3330078125 47 33.3330078125 47 24.3330078125 48 c 128,-1,52
 15.3330078125 49 15.3330078125 49 11.3330078125 76 c 256,53,54
 7.3330078125 103 7.3330078125 103 15.3330078125 121.5 c 128,-1,55
 23.3330078125 140 23.3330078125 140 40.3330078125 145 c 0,56,57
 54.3330078125 149 54.3330078125 149 128.333007812 150 c 0,58,59
 153.333007812 150 153.333007812 150 165.833007812 150.5 c 128,-1,60
 178.333007812 151 178.333007812 151 190.333007812 153.5 c 128,-1,61
 202.333007812 156 202.333007812 156 206.333007812 158.5 c 128,-1,62
 210.333007812 161 210.333007812 161 213.333007812 168 c 128,-1,63
 216.333007812 175 216.333007812 175 215.833007812 182.5 c 128,-1,64
 215.333007812 190 215.333007812 190 213.333007812 205 c 0,65,66
 206.333007812 273 206.333007812 273 164.333007812 359.5 c 128,-1,67
 122.333007812 446 122.333007812 446 61.3330078125 517 c 0,68,69
 42.3330078125 540 42.3330078125 540 41.8330078125 549.5 c 128,-1,70
 41.3330078125 559 41.3330078125 559 58.3330078125 562 c 0,0,1
384.333007812 502 m 0,71,72
 384.333007812 508 384.333007812 508 277.333007812 508 c 128,-1,73
 170.333007812 508 170.333007812 508 170.333007812 501 c 0,74,75
 170.333007812 495 170.333007812 495 199.333007812 442 c 0,76,77
 226.333007812 389 226.333007812 389 238.333007812 349 c 0,78,79
 248.333007812 314 248.333007812 314 256.833007812 301.5 c 128,-1,80
 265.333007812 289 265.333007812 289 274.833007812 297 c 128,-1,81
 284.333007812 305 284.333007812 305 295.333007812 335 c 0,82,83
 309.333007812 373 309.333007812 373 348.333007812 436 c 0,84,85
 384.333007812 495 384.333007812 495 384.333007812 502 c 0,71,72
EndSplineSet
EndChar

StartChar: r
Encoding: 114 114 53
Width: 508
Flags: W
LayerCount: 2
Fore
SplineSet
222.09765625 584 m 0,0,1
 252.09765625 588 252.09765625 588 324.59765625 579 c 128,-1,2
 397.09765625 570 397.09765625 570 417.09765625 560 c 0,3,4
 457.09765625 539 457.09765625 539 482.09765625 505 c 128,-1,5
 507.09765625 471 507.09765625 471 493.09765625 456 c 0,6,7
 486.09765625 449 486.09765625 449 411.09765625 433 c 0,8,9
 340.09765625 416 340.09765625 416 298.09765625 398 c 128,-1,10
 256.09765625 380 256.09765625 380 228.09765625 353 c 0,11,12
 197.09765625 325 197.09765625 325 189.59765625 294 c 128,-1,13
 182.09765625 263 182.09765625 263 186.09765625 176 c 0,14,15
 191.09765625 31 191.09765625 31 209.09765625 -42 c 0,16,17
 219.09765625 -83 219.09765625 -83 207.09765625 -83 c 0,18,19
 204.09765625 -83 204.09765625 -83 197.09765625 -79 c 0,20,21
 158.09765625 -54 158.09765625 -54 89.09765625 189 c 0,22,23
 59.09765625 292 59.09765625 292 89.09765625 345 c 0,24,25
 99.09765625 362 99.09765625 362 135.59765625 381 c 128,-1,26
 172.09765625 400 172.09765625 400 251.09765625 431 c 0,27,28
 294.09765625 448 294.09765625 448 306.59765625 455.5 c 128,-1,29
 319.09765625 463 319.09765625 463 319.09765625 471 c 0,30,31
 319.09765625 484 319.09765625 484 262.59765625 502.5 c 128,-1,32
 206.09765625 521 206.09765625 521 167.09765625 521 c 0,33,34
 149.09765625 521 149.09765625 521 105.59765625 512 c 128,-1,35
 62.09765625 503 62.09765625 503 38.09765625 494 c 0,36,37
 14.09765625 486 14.09765625 486 10.59765625 491.5 c 128,-1,38
 7.09765625 497 7.09765625 497 24.09765625 515 c 0,39,40
 49.09765625 541 49.09765625 541 92.09765625 556 c 128,-1,41
 135.09765625 571 135.09765625 571 222.09765625 584 c 0,0,1
EndSplineSet
EndChar

StartChar: s
Encoding: 115 115 54
Width: 449
Flags: W
LayerCount: 2
Fore
SplineSet
192 572 m 0,0,1
 252 587 252 587 347 568 c 0,2,3
 385 561 385 561 396 555.5 c 128,-1,4
 407 550 407 550 420 532 c 0,5,6
 439 505 439 505 439 477 c 0,7,8
 439 450 439 450 429 450 c 128,-1,9
 419 450 419 450 389 477 c 0,10,11
 357 506 357 506 340.5 513.5 c 128,-1,12
 324 521 324 521 290 521 c 0,13,14
 253 521 253 521 251.5 513 c 128,-1,15
 250 505 250 505 280 475 c 0,16,17
 314 442 314 442 325.5 420 c 128,-1,18
 337 398 337 398 337 365 c 0,19,20
 337 327 337 327 329 317 c 0,21,22
 323 310 323 310 315 312 c 128,-1,23
 307 314 307 314 279 329 c 0,24,25
 227 358 227 358 208 351 c 0,26,27
 205 350 205 350 205 347 c 0,28,29
 205 342 205 342 241 306 c 0,30,31
 302 246 302 246 345 164 c 0,32,33
 357 140 357 140 360 124 c 128,-1,34
 363 108 363 108 363 73 c 0,35,36
 364 33 364 33 360.5 21 c 128,-1,37
 357 9 357 9 341 -12 c 0,38,39
 326 -33 326 -33 308 -46.5 c 128,-1,40
 290 -60 290 -60 285 -55 c 0,41,42
 283 -53 283 -53 302 -19 c 0,43,44
 325 19 325 19 321 64.5 c 128,-1,45
 317 110 317 110 283 170 c 0,46,47
 265 204 265 204 184 275.5 c 128,-1,48
 103 347 103 347 59 369 c 0,49,50
 40 379 40 379 25 393 c 128,-1,51
 10 407 10 407 10 415 c 0,52,53
 10 422 10 422 44 423.5 c 128,-1,54
 78 425 78 425 123.5 421.5 c 128,-1,55
 169 418 169 418 199 410 c 0,56,57
 259 395 259 395 263.5 406.5 c 128,-1,58
 268 418 268 418 219 463 c 0,59,60
 172 506 172 506 141 524 c 0,61,62
 107 544 107 544 108 556.5 c 128,-1,63
 109 569 109 569 146 568 c 0,64,65
 170 566 170 566 192 572 c 0,0,1
EndSplineSet
EndChar

StartChar: t
Encoding: 116 116 55
Width: 487
Flags: W
LayerCount: 2
Fore
SplineSet
180.428710938 591 m 0,0,1
 172.428710938 598 172.428710938 598 185.428710938 598 c 0,2,3
 194.428710938 599 194.428710938 599 222.428710938 597 c 0,4,5
 272.428710938 594 272.428710938 594 333.428710938 570 c 0,6,7
 412.428710938 537 412.428710938 537 451.428710938 502 c 128,-1,8
 490.428710938 467 490.428710938 467 471.428710938 445 c 0,9,10
 461.428710938 432 461.428710938 432 424.428710938 417 c 128,-1,11
 387.428710938 402 387.428710938 402 338.428710938 390 c 0,12,13
 297.428710938 380 297.428710938 380 280.928710938 379 c 128,-1,14
 264.428710938 378 264.428710938 378 233.428710938 384 c 0,15,16
 186.428710938 393 186.428710938 393 182.428710938 388 c 0,17,18
 177.428710938 384 177.428710938 384 208.428710938 353 c 0,19,20
 235.428710938 326 235.428710938 326 246.928710938 299.5 c 128,-1,21
 258.428710938 273 258.428710938 273 262.428710938 232 c 0,22,23
 265.428710938 199 265.428710938 199 255.928710938 137 c 128,-1,24
 246.428710938 75 246.428710938 75 234.428710938 52 c 0,25,26
 225.428710938 35 225.428710938 35 225.428710938 8 c 2,27,-1
 225.428710938 -18 l 1,28,-1
 257.428710938 -18 l 2,29,30
 283.428710938 -18 283.428710938 -18 322.428710938 -6 c 128,-1,31
 361.428710938 6 361.428710938 6 395.428710938 24 c 0,32,33
 438.428710938 47 438.428710938 47 439.428710938 34 c 0,34,35
 440.428710938 33 440.428710938 33 440.428710938 32 c 0,36,37
 440.428710938 12 440.428710938 12 375.928710938 -32.5 c 128,-1,38
 311.428710938 -77 311.428710938 -77 262.428710938 -90 c 0,39,40
 229.428710938 -100 229.428710938 -100 217.428710938 -100 c 128,-1,41
 205.428710938 -100 205.428710938 -100 175.428710938 -92 c 0,42,43
 132.428710938 -80 132.428710938 -80 109.428710938 -63 c 0,44,45
 75.4287109375 -39 75.4287109375 -39 43.4287109375 18 c 0,46,47
 20.4287109375 60 20.4287109375 60 34.4287109375 60 c 0,48,49
 39.4287109375 60 39.4287109375 60 69.4287109375 34 c 0,50,51
 98.4287109375 11 98.4287109375 11 113.928710938 3 c 128,-1,52
 129.428710938 -5 129.428710938 -5 147.428710938 -5 c 2,53,-1
 167.428710938 -5 l 1,54,-1
 167.428710938 62 l 2,55,56
 167.428710938 259 167.428710938 259 38.4287109375 400 c 0,57,58
 16.4287109375 425 16.4287109375 425 11.9287109375 433.5 c 128,-1,59
 7.4287109375 442 7.4287109375 442 13.4287109375 447 c 0,60,61
 22.4287109375 457 22.4287109375 457 57.4287109375 456 c 0,62,63
 77.4287109375 455 77.4287109375 455 105.428710938 455 c 0,64,65
 116.428710938 456 116.428710938 456 240.428710938 460 c 0,66,67
 351.428710938 463 351.428710938 463 359.428710938 471 c 0,68,69
 363.428710938 479 363.428710938 479 336.428710938 503 c 0,70,71
 287.428710938 547 287.428710938 547 222.428710938 569 c 0,72,73
 189.428710938 582 189.428710938 582 180.428710938 591 c 0,0,1
EndSplineSet
EndChar

StartChar: u
Encoding: 117 117 56
Width: 490
Flags: W
LayerCount: 2
Fore
SplineSet
93.314453125 575 m 0,0,1
 137.314453125 578 137.314453125 578 273.814453125 576.5 c 128,-1,2
 410.314453125 575 410.314453125 575 414.314453125 571 c 0,3,4
 419.314453125 566 419.314453125 566 396.314453125 547 c 2,5,-1
 374.314453125 529 l 1,6,-1
 392.314453125 494 l 2,7,8
 405.314453125 470 405.314453125 470 435.314453125 414 c 0,9,10
 467.314453125 358 467.314453125 358 476.814453125 282 c 128,-1,11
 486.314453125 206 486.314453125 206 471.314453125 125 c 0,12,13
 456.314453125 49 456.314453125 49 415.314453125 -10.5 c 128,-1,14
 374.314453125 -70 374.314453125 -70 321.314453125 -90 c 0,15,16
 282.314453125 -104 282.314453125 -104 221.814453125 -103.5 c 128,-1,17
 161.314453125 -103 161.314453125 -103 128.314453125 -87 c 0,18,19
 78.314453125 -64 78.314453125 -64 54.814453125 -34.5 c 128,-1,20
 31.314453125 -5 31.314453125 -5 17.314453125 51 c 0,21,22
 1.314453125 120 1.314453125 120 20.314453125 251 c 0,23,24
 31.314453125 323 31.314453125 323 59.314453125 344.5 c 128,-1,25
 87.314453125 366 87.314453125 366 121.314453125 329 c 0,26,27
 136.314453125 314 136.314453125 314 145.314453125 292 c 128,-1,28
 154.314453125 270 154.314453125 270 149.314453125 264 c 0,29,30
 147.314453125 262 147.314453125 262 117.814453125 274.5 c 128,-1,31
 88.314453125 287 88.314453125 287 87.314453125 287 c 0,32,33
 71.314453125 287 71.314453125 287 67.314453125 241.5 c 128,-1,34
 63.314453125 196 63.314453125 196 75.314453125 154 c 0,35,36
 98.314453125 66 98.314453125 66 162.814453125 6 c 128,-1,37
 227.314453125 -54 227.314453125 -54 280.314453125 -37 c 0,38,39
 336.314453125 -18 336.314453125 -18 355.314453125 21 c 0,40,41
 384.314453125 79 384.314453125 79 385.314453125 141 c 0,42,43
 385.314453125 159 385.314453125 159 388.314453125 177 c 128,-1,44
 391.314453125 195 391.314453125 195 390.814453125 208 c 128,-1,45
 390.314453125 221 390.314453125 221 383.314453125 244 c 0,46,47
 371.314453125 282 371.314453125 282 371.314453125 294 c 0,48,49
 371.314453125 310 371.314453125 310 334.814453125 360 c 128,-1,50
 298.314453125 410 298.314453125 410 260.314453125 446 c 0,51,52
 224.314453125 480 224.314453125 480 169.314453125 513 c 128,-1,53
 114.314453125 546 114.314453125 546 83.314453125 553 c 0,54,55
 61.314453125 557 61.314453125 557 61.314453125 564 c 0,56,57
 61.314453125 572 61.314453125 572 93.314453125 575 c 0,0,1
187.314453125 208 m 0,58,59
 209.314453125 227 209.314453125 227 241.314453125 219.5 c 128,-1,60
 273.314453125 212 273.314453125 212 287.314453125 184 c 0,61,62
 293.314453125 174 293.314453125 174 291.814453125 169 c 128,-1,63
 290.314453125 164 290.314453125 164 278.314453125 153 c 0,64,65
 261.314453125 139 261.314453125 139 234.314453125 136.5 c 128,-1,66
 207.314453125 134 207.314453125 134 185.314453125 145 c 0,67,68
 168.314453125 154 168.314453125 154 169.314453125 174.5 c 128,-1,69
 170.314453125 195 170.314453125 195 187.314453125 208 c 0,58,59
EndSplineSet
EndChar

StartChar: v
Encoding: 118 118 57
Width: 476
Flags: W
LayerCount: 2
Fore
SplineSet
71.130859375 575 m 0,0,1
 93.130859375 578 93.130859375 578 217.130859375 578 c 128,-1,2
 341.130859375 578 341.130859375 578 360.130859375 575 c 0,3,4
 385.130859375 571 385.130859375 571 385.130859375 560 c 0,5,6
 384.130859375 554 384.130859375 554 375.130859375 551 c 0,7,8
 358.130859375 545 358.130859375 545 368.630859375 509 c 128,-1,9
 379.130859375 473 379.130859375 473 411.130859375 426 c 0,10,11
 428.130859375 400 428.130859375 400 447.130859375 361 c 0,12,13
 460.130859375 334 460.130859375 334 462.630859375 315 c 128,-1,14
 465.130859375 296 465.130859375 296 466.130859375 235 c 0,15,16
 466.130859375 155 466.130859375 155 453.130859375 111.5 c 128,-1,17
 440.130859375 68 440.130859375 68 399.130859375 7 c 0,18,19
 375.130859375 -27 375.130859375 -27 361.630859375 -40.5 c 128,-1,20
 348.130859375 -54 348.130859375 -54 326.130859375 -65 c 0,21,22
 290.130859375 -83 290.130859375 -83 283.130859375 -83 c 0,23,24
 266.130859375 -83 266.130859375 -83 280.130859375 -63 c 0,25,26
 286.130859375 -55 286.130859375 -55 295.130859375 -46 c 0,27,28
 343.130859375 -2 343.130859375 -2 377.130859375 65 c 0,29,30
 391.130859375 91 391.130859375 91 394.130859375 107 c 128,-1,31
 397.130859375 123 397.130859375 123 397.130859375 158 c 0,32,33
 397.130859375 282 397.130859375 282 310.130859375 428 c 0,34,35
 280.130859375 479 280.130859375 479 255.130859375 504 c 128,-1,36
 230.130859375 529 230.130859375 529 214.130859375 525 c 0,37,38
 197.130859375 521 197.130859375 521 162.630859375 448 c 128,-1,39
 128.130859375 375 128.130859375 375 114.130859375 313 c 0,40,41
 106.130859375 272 106.130859375 272 106.130859375 209 c 128,-1,42
 106.130859375 146 106.130859375 146 115.130859375 115 c 0,43,44
 140.130859375 27 140.130859375 27 153.130859375 5 c 0,45,46
 165.130859375 -17 165.130859375 -17 177.130859375 -43 c 128,-1,47
 189.130859375 -69 189.130859375 -69 190.130859375 -75 c 0,48,49
 190.130859375 -104 190.130859375 -104 123.130859375 -36 c 0,50,51
 65.130859375 23 65.130859375 23 36.630859375 86 c 128,-1,52
 8.130859375 149 8.130859375 149 10.130859375 229 c 128,-1,53
 12.130859375 309 12.130859375 309 50.130859375 404 c 0,54,55
 73.130859375 463 73.130859375 463 78.130859375 485 c 128,-1,56
 83.130859375 507 83.130859375 507 76.130859375 527 c 0,57,58
 69.130859375 549 69.130859375 549 61.130859375 552 c 0,59,60
 47.130859375 556 47.130859375 556 56.130859375 567 c 0,61,62
 61.130859375 573 61.130859375 573 71.130859375 575 c 0,0,1
EndSplineSet
EndChar

StartChar: w
Encoding: 119 119 58
Width: 609
Flags: W
LayerCount: 2
Fore
SplineSet
550 560 m 0,0,1
 558 571 558 571 572 572 c 128,-1,2
 586 573 586 573 594 563 c 0,3,4
 601 555 601 555 599 520.5 c 128,-1,5
 597 486 597 486 588 455 c 0,6,7
 583 436 583 436 560 410 c 128,-1,8
 537 384 537 384 525 384 c 0,9,10
 516 384 516 384 520 410 c 0,11,12
 523 427 523 427 521 435 c 128,-1,13
 519 443 519 443 510 453 c 0,14,15
 500 463 500 463 489.5 466 c 128,-1,16
 479 469 479 469 449 469 c 0,17,18
 405 469 405 469 389.5 456.5 c 128,-1,19
 374 444 374 444 374 409 c 0,20,21
 374 379 374 379 384 359 c 128,-1,22
 394 339 394 339 419 319 c 0,23,24
 436 306 436 306 440.5 297.5 c 128,-1,25
 445 289 445 289 445 271 c 0,26,27
 445 229 445 229 411 143.5 c 128,-1,28
 377 58 377 58 332.5 -14 c 128,-1,29
 288 -86 288 -86 263 -95 c 0,30,31
 236 -105 236 -105 201 -102 c 128,-1,32
 166 -99 166 -99 166 -87 c 0,33,34
 166 -79 166 -79 200 -50 c 0,35,36
 228 -25 228 -25 229 -13 c 128,-1,37
 230 -1 230 -1 204 13 c 0,38,39
 175 28 175 28 126.5 66 c 128,-1,40
 78 104 78 104 63 123 c 0,41,42
 42 148 42 148 26 181 c 128,-1,43
 10 214 10 214 10 232 c 0,44,45
 10 251 10 251 26 284 c 0,46,47
 94 429 94 429 94 441 c 0,48,49
 94 451 94 451 74 477 c 0,50,51
 54 502 54 502 59 506 c 0,52,53
 63 511 63 511 119 508 c 0,54,55
 194 505 194 505 289 506 c 128,-1,56
 384 507 384 507 426 511 c 0,57,58
 470 515 470 515 505 528.5 c 128,-1,59
 540 542 540 542 550 560 c 0,0,1
282 394 m 0,60,61
 254 436 254 436 237.5 445.5 c 128,-1,62
 221 455 221 455 199 442 c 0,63,64
 167 423 167 423 132.5 355.5 c 128,-1,65
 98 288 98 288 103 253 c 0,66,67
 106 229 106 229 123 192.5 c 128,-1,68
 140 156 140 156 163 128 c 0,69,70
 183 100 183 100 216 73.5 c 128,-1,71
 249 47 249 47 263 47 c 0,72,73
 280 47 280 47 304 122.5 c 128,-1,74
 328 198 328 198 328 253 c 0,75,76
 328 293 328 293 317.5 325 c 128,-1,77
 307 357 307 357 282 394 c 0,60,61
EndSplineSet
EndChar

StartChar: x
Encoding: 120 120 59
Width: 601
Flags: W
LayerCount: 2
Fore
SplineSet
413 540 m 0,0,1
 413 558 413 558 453 533 c 0,2,3
 481 515 481 515 505 489 c 0,4,5
 560 431 560 431 574 355 c 0,6,7
 590 276 590 276 591.5 251 c 128,-1,8
 593 226 593 226 584 175 c 0,9,10
 571 97 571 97 536 34 c 128,-1,11
 501 -29 501 -29 453 -58 c 0,12,13
 436 -69 436 -69 407.5 -71.5 c 128,-1,14
 379 -74 379 -74 250 -77 c 0,15,16
 69 -82 69 -82 46 -88 c 0,17,18
 19 -96 19 -96 14.5 -95 c 128,-1,19
 10 -94 10 -94 10 -81 c 0,20,21
 10 -67 10 -67 32.5 -52.5 c 128,-1,22
 55 -38 55 -38 93 -28 c 0,23,24
 133 -16 133 -16 133 -11 c 128,-1,25
 133 -6 133 -6 115 22 c 0,26,27
 98 47 98 47 75 94 c 0,28,29
 60 126 60 126 57.5 141.5 c 128,-1,30
 55 157 55 157 57 205 c 0,31,32
 59 245 59 245 63 265.5 c 128,-1,33
 67 286 67 286 78 308 c 0,34,35
 94 346 94 346 127 394 c 128,-1,36
 160 442 160 442 179 458 c 0,37,38
 197 473 197 473 217.5 484.5 c 128,-1,39
 238 496 238 496 241 493 c 256,40,41
 244 490 244 490 230 465 c 128,-1,42
 216 440 216 440 204 427 c 0,43,44
 179 398 179 398 161.5 342 c 128,-1,45
 144 286 144 286 145 238 c 0,46,47
 146 176 146 176 170 106.5 c 128,-1,48
 194 37 194 37 226 3 c 0,49,50
 241 -12 241 -12 250.5 -15 c 128,-1,51
 260 -18 260 -18 297 -18 c 0,52,53
 347 -18 347 -18 376 -5 c 0,54,55
 401 9 401 9 411.5 22 c 128,-1,56
 422 35 422 35 448 89 c 0,57,58
 497 187 497 187 497 306 c 0,59,60
 497 374 497 374 483 418.5 c 128,-1,61
 469 463 469 463 435 505 c 0,62,63
 413 532 413 532 413 540 c 0,0,1
EndSplineSet
EndChar

StartChar: y
Encoding: 121 121 60
Width: 457
Flags: W
LayerCount: 2
Fore
SplineSet
82.7646484375 538 m 0,0,1
 90.7646484375 544 90.7646484375 544 217.764648438 534 c 0,2,3
 226.764648438 533 226.764648438 533 229.764648438 505 c 0,4,5
 234.764648438 472 234.764648438 472 246.764648438 468 c 128,-1,6
 258.764648438 464 258.764648438 464 304.764648438 478 c 0,7,8
 353.764648438 492 353.764648438 492 388.764648438 507 c 0,9,10
 440.764648438 530 440.764648438 530 446.764648438 515 c 0,11,12
 447.764648438 514 447.764648438 514 447.764648438 512 c 0,13,14
 447.764648438 504 447.764648438 504 417.764648438 469 c 0,15,16
 333.764648438 365 333.764648438 365 295.764648438 183 c 0,17,18
 256.764648438 -4 256.764648438 -4 280.764648438 -23 c 0,19,20
 285.764648438 -28 285.764648438 -28 320.764648438 -41 c 0,21,22
 344.764648438 -49 344.764648438 -49 360.264648438 -59.5 c 128,-1,23
 375.764648438 -70 375.764648438 -70 375.764648438 -78 c 1,24,25
 369.764648438 -83 369.764648438 -83 328.264648438 -82 c 128,-1,26
 286.764648438 -81 286.764648438 -81 226.764648438 -74.5 c 128,-1,27
 166.764648438 -68 166.764648438 -68 136.764648438 -60 c 0,28,29
 74.7646484375 -44 74.7646484375 -44 48.2646484375 -29 c 128,-1,30
 21.7646484375 -14 21.7646484375 -14 13.7646484375 9 c 0,31,32
 -2.2353515625 60 -2.2353515625 60 49.7646484375 105 c 0,33,34
 94.7646484375 143 94.7646484375 143 94.7646484375 122 c 0,35,36
 94.7646484375 118 94.7646484375 118 93.7646484375 111 c 0,37,38
 90.7646484375 98 90.7646484375 98 94.2646484375 90 c 128,-1,39
 97.7646484375 82 97.7646484375 82 113.764648438 65 c 0,40,41
 156.764648438 21 156.764648438 21 186.764648438 21 c 0,42,43
 193.764648438 21 193.764648438 21 197.264648438 29 c 128,-1,44
 200.764648438 37 200.764648438 37 203.764648438 65 c 0,45,46
 207.764648438 106 207.764648438 106 207.764648438 130.5 c 128,-1,47
 207.764648438 155 207.764648438 155 201.764648438 219 c 0,48,49
 192.764648438 311 192.764648438 311 169.764648438 374.5 c 128,-1,50
 146.764648438 438 146.764648438 438 105.764648438 484 c 0,51,52
 83.7646484375 508 83.7646484375 508 79.2646484375 519 c 128,-1,53
 74.7646484375 530 74.7646484375 530 82.7646484375 538 c 0,0,1
EndSplineSet
EndChar

StartChar: z
Encoding: 122 122 61
Width: 271
Flags: W
LayerCount: 2
Fore
SplineSet
47.142578125 537 m 2,0,1
 72.142578125 551 72.142578125 551 161.142578125 538 c 128,-1,2
 250.142578125 525 250.142578125 525 254.142578125 506 c 0,3,4
 258.142578125 482 258.142578125 482 181.142578125 482 c 0,5,6
 125.142578125 482 125.142578125 482 125.142578125 457 c 0,7,8
 125.142578125 448 125.142578125 448 176.142578125 450 c 0,9,10
 261.142578125 451 261.142578125 451 261.142578125 434 c 0,11,12
 261.142578125 426 261.142578125 426 239.142578125 400 c 128,-1,13
 217.142578125 374 217.142578125 374 212.642578125 352 c 128,-1,14
 208.142578125 330 208.142578125 330 200.142578125 313 c 0,15,16
 195.142578125 302 195.142578125 302 189.142578125 269 c 128,-1,17
 183.142578125 236 183.142578125 236 177.642578125 197 c 128,-1,18
 172.142578125 158 172.142578125 158 170.142578125 149 c 0,19,20
 164.142578125 118 164.142578125 118 164.142578125 81 c 0,21,22
 164.142578125 -4 164.142578125 -4 146.142578125 -5 c 0,23,24
 129.142578125 -7 129.142578125 -7 119.142578125 72 c 0,25,26
 110.142578125 139 110.142578125 139 75.642578125 256.5 c 128,-1,27
 41.142578125 374 41.142578125 374 20.142578125 408 c 0,28,29
 11.142578125 423 11.142578125 423 10.142578125 430 c 128,-1,30
 9.142578125 437 9.142578125 437 15.142578125 447 c 0,31,32
 20.142578125 457 20.142578125 457 41.142578125 469.5 c 128,-1,33
 62.142578125 482 62.142578125 482 88.142578125 490 c 0,34,35
 99.142578125 495 99.142578125 495 99.142578125 501 c 256,36,37
 99.142578125 507 99.142578125 507 79.142578125 517 c 128,-1,38
 59.142578125 527 59.142578125 527 46.142578125 527 c 2,39,-1
 31.142578125 527 l 1,40,-1
 47.142578125 537 l 2,0,1
EndSplineSet
EndChar

StartChar: quoteright
Encoding: 260 8217 62
Width: 130
Flags: W
LayerCount: 2
Fore
SplineSet
73 723 m 0,0,1
 84 736 84 736 90.5 733.5 c 128,-1,2
 97 731 97 731 107 708 c 0,3,4
 134 649 134 649 105 605 c 0,5,6
 90 583 90 583 59 503 c 256,7,8
 28 423 28 423 19 423 c 128,-1,9
 10 423 10 423 10 433 c 128,-1,10
 10 443 10 443 19 485 c 0,11,12
 20 491 20 491 45 621 c 0,13,14
 62 711 62 711 73 723 c 0,0,1
EndSplineSet
EndChar
